<?xml version="1.0" standalone="no"?>
<!DOCTYPE svg PUBLIC "-//W3C//DTD SVG 20010904//EN"
 "http://www.w3.org/TR/2001/REC-SVG-20010904/DTD/svg10.dtd">
<svg version="1.0" xmlns="http://www.w3.org/2000/svg"
 width="8000.000000pt" height="8000.000000pt" viewBox="0 0 8000.000000 8000.000000"
 preserveAspectRatio="xMidYMid meet">

<g transform="translate(0.000000,8000.000000) scale(0.100000,-0.100000)"
fill="#000000" stroke="none">
<path d="M47679 76156 c-2 -2 -56 -6 -119 -10 -584 -33 -1230 -213 -1775 -496
-432 -223 -763 -462 -1109 -800 -787 -769 -1256 -1744 -1370 -2850 -21 -204
-26 -801 -27 -3815 -1 -3054 -3 -3346 -19 -3643 -18 -318 -21 -367 -40 -587
-268 -3095 -1293 -6022 -3011 -8597 -1587 -2378 -3747 -4386 -6224 -5788
-1171 -662 -2452 -1212 -3700 -1589 -978 -295 -2033 -521 -2970 -636 -22 -3
-56 -7 -75 -10 -78 -10 -123 -15 -305 -34 -104 -11 -244 -25 -310 -31 -66 -6
-140 -13 -165 -15 -122 -12 -542 -36 -547 -31 -4 3 -12 59 -20 123 -92 809
-378 1602 -820 2278 -389 594 -900 1110 -1490 1505 -228 152 -398 250 -645
370 -587 284 -1235 458 -1888 507 -58 4 -2659 8 -5780 8 -6024 0 -5740 2
-6075 -46 -1295 -186 -2468 -843 -3310 -1854 -696 -836 -1107 -1842 -1200
-2940 -14 -174 -15 -1516 -13 -15520 2 -8431 6 -15346 10 -15365 4 -19 12 -87
18 -150 25 -250 97 -613 170 -865 262 -896 719 -1660 1376 -2306 272 -266 482
-437 779 -635 782 -519 1668 -816 2600 -873 186 -11 11130 -13 11310 -1 510
32 936 113 1390 265 1715 573 3027 2000 3453 3755 37 151 77 355 92 470 6 47
13 96 15 110 3 14 8 59 11 100 4 41 8 82 10 90 1 8 3 19 3 23 1 9 3250 3 3336
-6 28 -3 100 -8 160 -12 1844 -105 3674 -563 5360 -1342 77 -36 898 -444 1825
-907 1828 -913 1968 -982 2290 -1123 1141 -503 2309 -870 3535 -1114 419 -83
1000 -173 1385 -214 80 -9 161 -17 181 -20 35 -4 333 -30 454 -39 33 -3 116
-8 185 -11 69 -4 136 -8 150 -11 104 -16 1587 -19 9430 -19 8489 0 8913 1
9080 18 596 61 1109 189 1629 406 1256 526 2295 1528 2868 2766 250 540 430
1191 478 1730 4 39 8 81 11 95 17 104 24 543 12 780 -55 1074 -438 2128 -1089
2995 -54 72 -120 157 -148 190 -27 33 -49 61 -48 61 1 1 144 5 317 8 173 3
331 8 350 10 19 2 73 7 120 11 454 33 973 149 1440 322 1561 579 2785 1844
3310 3423 134 403 214 782 262 1240 20 196 17 832 -6 1040 -97 898 -387 1721
-859 2443 -208 317 -382 537 -654 824 l-135 143 28 11 c72 27 371 169 487 231
334 179 651 394 962 652 156 130 513 487 647 646 741 884 1167 1891 1284 3035
19 186 27 696 13 885 -87 1212 -536 2304 -1332 3235 -135 158 -401 424 -560
560 -109 92 -125 110 -110 118 200 105 557 354 818 571 156 130 533 507 665
665 287 346 504 676 699 1061 339 669 529 1361 582 2119 11 157 7 699 -6 816
-3 28 -10 95 -16 150 -13 131 -55 392 -84 530 -192 895 -581 1689 -1181 2410
-139 167 -492 520 -659 659 -813 677 -1743 1094 -2765 1240 -96 14 -211 28
-255 31 -44 4 -96 9 -115 13 -19 4 -3893 8 -8607 9 -4715 2 -8573 5 -8573 7 0
2 29 129 64 282 307 1330 604 2967 835 4604 61 436 94 676 121 885 11 88 23
176 26 195 24 169 136 1125 184 1565 16 154 32 303 35 330 8 69 73 725 80 805
3 36 8 81 10 100 4 31 57 618 70 780 3 36 8 88 10 115 9 90 48 572 60 740 3
44 8 100 10 125 2 25 7 81 10 125 3 44 8 107 10 140 3 33 9 128 15 210 6 83
12 177 15 210 3 33 11 164 20 290 8 127 17 266 20 310 12 182 34 558 40 670 3
66 8 145 10 175 4 49 15 241 30 555 3 55 7 141 10 190 3 50 7 149 10 220 3 72
7 171 10 220 3 50 7 144 10 210 19 460 25 601 30 760 3 99 7 223 10 275 2 52
7 192 10 310 3 118 8 262 10 320 2 58 7 218 10 355 3 138 7 318 10 400 28 938
44 3125 25 3455 -36 619 -144 1194 -337 1785 -262 805 -685 1581 -1218 2235
-221 272 -577 641 -835 866 -1281 1119 -2918 1734 -4614 1734 -106 0 -195 -2
-197 -4z m596 -1962 c33 -3 133 -14 221 -25 1781 -212 3332 -1380 4043 -3046
213 -499 349 -1064 388 -1608 14 -195 5 -2463 -12 -2905 -2 -52 -6 -234 -9
-405 -4 -170 -9 -373 -11 -450 -3 -77 -10 -295 -15 -485 -10 -346 -16 -539
-25 -745 -3 -60 -7 -171 -10 -245 -8 -204 -24 -592 -30 -710 -3 -58 -9 -199
-15 -315 -12 -269 -25 -508 -35 -690 -3 -44 -9 -161 -15 -260 -10 -189 -17
-300 -25 -425 -3 -41 -12 -185 -20 -320 -8 -135 -26 -402 -40 -595 -14 -192
-27 -386 -30 -430 -3 -44 -8 -102 -10 -130 -4 -50 -20 -246 -30 -380 -3 -38
-16 -203 -30 -365 -13 -162 -29 -351 -35 -420 -6 -69 -12 -145 -15 -170 -3
-25 -14 -146 -25 -270 -24 -261 -103 -1060 -125 -1265 -9 -77 -18 -160 -20
-185 -15 -139 -128 -1109 -144 -1240 -11 -85 -36 -279 -55 -430 -318 -2494
-795 -5023 -1246 -6610 -75 -264 -80 -288 -84 -390 -13 -362 168 -701 472
-884 90 -54 242 -109 342 -125 45 -8 2954 -11 9230 -12 5368 0 9206 -5 9265
-10 753 -68 1454 -363 2020 -849 127 -109 354 -345 458 -475 343 -427 595
-959 701 -1477 59 -288 71 -419 70 -773 0 -286 -13 -422 -65 -677 -61 -304
-149 -559 -294 -853 -266 -539 -646 -986 -1128 -1328 -529 -376 -1141 -599
-1775 -647 -68 -5 -347 -10 -620 -10 -546 -1 -606 -6 -752 -60 -215 -78 -397
-229 -510 -421 -163 -277 -180 -615 -45 -906 104 -224 315 -420 541 -502 117
-43 223 -59 424 -65 566 -17 1067 -146 1555 -400 1020 -532 1721 -1522 1880
-2656 25 -179 30 -277 29 -530 -1 -252 -16 -417 -60 -640 -295 -1503 -1522
-2651 -3039 -2845 -181 -23 -317 -26 -1370 -28 l-970 -2 -100 -28 c-194 -53
-333 -135 -472 -280 -127 -132 -212 -294 -248 -476 -21 -104 -16 -334 9 -426
88 -318 312 -568 609 -677 118 -43 198 -56 402 -63 318 -11 547 -42 820 -112
1240 -316 2228 -1300 2550 -2538 80 -307 108 -530 109 -860 1 -300 -6 -410
-40 -614 -179 -1079 -840 -2010 -1802 -2540 -449 -247 -994 -406 -1472 -427
-63 -3 -1184 -6 -2490 -8 -1306 -1 -2393 -6 -2415 -10 -22 -5 -78 -19 -124
-32 -471 -137 -771 -614 -686 -1095 64 -365 314 -655 663 -768 94 -30 165 -41
308 -46 297 -11 426 -23 634 -61 962 -174 1826 -759 2355 -1595 250 -394 424
-847 500 -1303 37 -223 46 -340 47 -586 1 -209 -5 -303 -33 -508 -86 -620
-346 -1222 -745 -1717 -483 -601 -1151 -1033 -1889 -1220 -205 -52 -460 -93
-639 -103 -180 -10 -17681 -9 -17931 1 -182 7 -548 29 -685 42 -30 2 -84 7
-120 10 -156 13 -536 58 -725 86 -1434 207 -2792 608 -4092 1205 -100 46 -973
479 -1940 962 -1738 868 -1976 984 -2390 1161 -1674 717 -3485 1162 -5288
1300 -302 23 -383 28 -600 36 -88 3 -196 8 -240 10 -44 2 -756 4 -1582 4
l-1503 1 0 13520 0 13520 58 1 c31 0 75 2 97 4 22 2 94 6 160 10 117 6 450 31
530 39 22 3 72 8 110 11 1698 154 3489 563 5115 1168 2388 889 4535 2179 6430
3866 514 458 1143 1083 1610 1601 1841 2042 3255 4460 4136 7075 491 1455 797
2873 959 4437 32 307 67 808 80 1143 4 83 9 182 12 220 4 39 8 1582 9 3430 2
1848 6 3412 9 3475 19 418 182 897 431 1270 453 680 1173 1107 1989 1180 98 8
491 5 610 -6z m-36725 -42460 l0 -18335 -937 4 c-881 4 -947 5 -1088 25 -534
74 -980 240 -1415 527 -499 329 -884 768 -1150 1310 -177 360 -274 693 -324
1110 -13 104 -14 2187 -12 15400 2 14317 3 15287 19 15395 49 336 121 597 239
875 386 907 1158 1600 2099 1885 196 59 488 115 694 133 22 2 453 4 958 5
l917 2 0 -18336z m6920 13135 c1035 -91 1880 -847 2090 -1869 63 -313 54 -709
-26 -1025 -100 -398 -298 -754 -586 -1051 -204 -210 -388 -344 -653 -474 -232
-114 -423 -175 -680 -216 -137 -22 -478 -27 -620 -9 -264 32 -519 109 -755
226 -259 129 -449 268 -646 471 -355 367 -572 819 -639 1332 -14 112 -21 439
-10 511 2 17 9 66 15 110 55 396 233 808 487 1125 486 609 1249 936 2023 869z"/>
</g>
</svg>
