<?xml version="1.0" standalone="no"?>
<!DOCTYPE svg PUBLIC "-//W3C//DTD SVG 20010904//EN"
 "http://www.w3.org/TR/2001/REC-SVG-20010904/DTD/svg10.dtd">
<svg version="1.0" xmlns="http://www.w3.org/2000/svg"
 width="960.000000pt" height="960.000000pt" viewBox="0 0 960.000000 960.000000"
 preserveAspectRatio="xMidYMid meet">

<g transform="translate(0.000000,960.000000) scale(0.100000,-0.100000)"
fill="#000000" stroke="none">
<path d="M2863 8720 c-118 -60 -188 -177 -188 -315 0 -84 25 -139 92 -208 67
-69 140 -102 228 -101 61 0 81 5 157 41 85 40 124 47 71 11 -16 -10 -28 -23
-28 -30 0 -6 -7 -13 -15 -15 -13 -4 -13 -3 0 7 13 10 12 11 -3 6 -10 -3 -21
-6 -23 -6 -3 0 -2 -5 2 -12 4 -7 3 -8 -5 -4 -6 4 -22 1 -34 -7 -23 -15 -71
-31 -122 -41 -28 -6 -29 -5 -11 9 24 18 7 20 -18 2 -12 -9 -16 -20 -12 -33 6
-19 76 -92 171 -180 54 -49 65 -51 139 -20 42 18 46 38 16 96 -25 49 -25 54 2
90 l22 30 -24 32 c-20 28 -22 35 -11 64 13 36 8 54 -14 54 -9 0 -2 18 20 56
104 173 57 380 -107 469 -46 25 -66 30 -148 33 -90 3 -98 2 -157 -28z m245
-10 c43 -15 70 -33 107 -73 61 -64 75 -106 75 -218 0 -72 -4 -93 -29 -145 -45
-94 -145 -154 -258 -154 -99 0 -233 83 -280 173 -41 81 -22 215 43 303 88 119
210 160 342 114z m132 -625 c0 -17 -4 -23 -14 -19 -9 3 -13 -1 -13 -13 2 -21
-42 -45 -116 -65 -43 -11 -51 -10 -83 7 l-36 19 70 18 c39 9 97 30 129 47 32
16 59 30 61 30 1 1 2 -10 2 -24z m0 -90 c-29 -31 -123 -67 -164 -63 -45 4 -36
22 15 30 24 3 71 18 104 32 74 31 73 31 45 1z m18 -80 c25 -52 26 -55 12 -55
-6 0 -28 -8 -50 -19 l-38 -18 -36 36 c-20 20 -36 40 -36 43 0 4 22 14 50 23
27 9 52 21 55 26 11 17 21 9 43 -36z"/>
<path d="M3015 8613 c-15 -16 -35 -45 -46 -65 -18 -36 -22 -38 -68 -38 -60 0
-76 -16 -66 -67 12 -66 59 -120 170 -195 l40 -27 28 32 c45 52 77 122 77 170
0 80 -60 217 -95 217 -8 0 -26 -12 -40 -27z m78 -55 c13 -29 27 -66 31 -82 10
-41 -10 -123 -45 -184 l-30 -53 -52 37 c-29 20 -69 54 -89 76 -38 40 -65 105
-50 120 4 4 29 10 55 12 57 6 63 9 83 49 18 35 53 77 65 77 4 0 19 -24 32 -52z"/>
<path d="M7360 8291 c-8 -5 -85 -38 -170 -74 -135 -56 -208 -84 -397 -153 -24
-9 -43 -22 -43 -29 0 -14 178 -105 205 -105 23 0 27 -18 10 -49 -20 -40 -19
-76 5 -126 44 -91 185 -121 256 -54 l22 21 44 -30 c101 -69 143 -79 154 -35 8
29 -2 421 -12 515 l-7 58 89 -49 c285 -156 539 -295 679 -374 170 -95 409
-229 412 -232 1 0 -8 -84 -21 -186 -14 -101 -32 -240 -40 -309 -22 -170 -71
-528 -101 -735 -57 -402 -98 -712 -107 -820 l-3 -30 -195 -8 c-107 -4 -201 -9
-207 -12 -8 -3 -13 -23 -13 -50 l0 -45 -565 0 c-311 0 -565 2 -565 5 0 7 130
303 232 530 170 376 305 677 363 814 47 108 55 135 44 143 -21 15 -1961 3
-1989 -12 -15 -8 -70 -109 -166 -307 -79 -162 -144 -299 -144 -304 0 -27 -21
4 -78 111 -61 117 -62 120 -46 145 16 25 16 26 -22 68 -22 24 -86 104 -144
177 -58 74 -136 166 -175 203 -72 70 -205 167 -231 167 -8 0 -14 1 -14 3 2 27
31 92 41 90 8 -1 43 -13 78 -28 122 -51 209 -42 250 26 59 98 44 301 -32 431
-34 58 -117 134 -175 161 -38 18 -65 22 -147 22 -88 0 -107 -3 -157 -27 -75
-35 -144 -105 -196 -198 -31 -58 -50 -80 -77 -93 -60 -29 -92 -106 -65 -158
21 -38 63 -50 170 -47 92 2 103 0 123 -20 20 -21 21 -24 7 -50 -16 -28 -17
-28 -205 -83 -110 -33 -182 -78 -272 -172 -90 -94 -152 -195 -183 -299 -22
-70 -86 -348 -100 -433 -5 -27 -21 -113 -35 -190 -15 -77 -35 -196 -45 -265
l-19 -125 22 -24 c12 -13 36 -30 53 -37 l32 -13 -19 -92 c-11 -51 -20 -94 -22
-95 -1 -1 -341 -5 -754 -9 l-753 -8 -2 274 -3 274 -77 3 c-44 2 -78 7 -78 13
0 31 44 249 57 280 14 35 16 37 43 28 41 -15 98 4 167 55 69 51 135 124 130
146 -9 44 -224 -20 -290 -86 -22 -22 -43 -58 -55 -92 l-18 -56 -24 39 c-62
100 -111 130 -130 79 -17 -44 16 -129 82 -212 37 -46 37 -49 17 -144 -12 -54
-11 -53 -139 -53 l-94 0 -7 35 c-4 19 -20 135 -35 256 l-28 221 28 58 c51 103
176 209 308 259 46 18 48 18 93 -4 38 -18 55 -21 104 -15 116 13 301 93 301
129 0 24 -60 38 -182 43 -172 8 -258 -21 -258 -86 0 -23 -7 -29 -53 -45 -127
-44 -267 -154 -318 -252 -13 -24 -27 -44 -30 -44 -4 0 -10 53 -14 118 -3 64
-10 145 -15 179 -8 61 -8 64 20 91 39 39 55 102 42 167 -15 72 -49 159 -71
179 -18 16 -20 14 -46 -51 -46 -116 -46 -209 1 -278 18 -27 27 -56 31 -104 l6
-66 -29 26 c-16 15 -54 40 -84 55 -44 23 -68 29 -122 29 -53 0 -69 3 -73 16
-16 49 -124 51 -202 3 -66 -41 -69 -68 -9 -83 79 -19 137 -14 199 19 52 27 59
29 113 20 32 -5 61 -15 65 -21 4 -6 11 -9 16 -6 6 4 19 -3 31 -13 12 -11 25
-20 29 -20 4 0 21 -16 36 -35 24 -31 30 -49 38 -133 9 -88 59 -489 75 -604 l7
-48 -86 0 -85 0 -52 96 c-100 185 -191 305 -277 365 -24 17 -43 36 -43 44 0
20 -136 134 -189 157 -37 17 -47 18 -67 7 -33 -17 -30 -51 6 -93 31 -34 88
-62 194 -91 52 -15 68 -26 138 -97 43 -45 78 -84 78 -89 0 -4 -15 -10 -32 -14
-46 -10 -111 -49 -142 -86 -54 -64 -18 -66 117 -5 l98 45 33 -52 c18 -29 49
-82 69 -119 l36 -67 -42 -5 c-23 -3 -53 -7 -67 -8 l-25 -3 4 -262 3 -263 -176
0 c-134 0 -176 -3 -175 -12 0 -7 8 -33 18 -57 l18 -44 469 -4 c258 -2 487 -5
509 -6 l39 -2 38 -100 c38 -99 131 -398 268 -860 40 -132 97 -319 127 -415 31
-96 66 -207 78 -247 13 -40 22 -80 19 -90 -28 -128 -257 -1020 -296 -1156
l-23 -79 -85 -32 c-213 -80 -380 -242 -466 -451 -24 -60 -28 -83 -28 -165 0
-109 18 -162 79 -229 46 -51 87 -76 162 -100 59 -20 164 -40 113 -22 -30 11
86 6 270 -11 109 -9 133 -9 181 5 68 20 109 51 109 81 0 26 -30 62 -60 71 -18
6 -15 12 34 60 l54 54 48 -15 c58 -18 138 -11 202 16 l43 19 50 -36 c27 -19
52 -33 55 -30 3 3 -17 21 -46 40 -48 32 -50 36 -34 51 10 11 19 14 23 7 9 -13
132 -71 151 -70 8 0 -22 18 -67 39 -46 22 -83 41 -83 44 0 2 12 28 27 58 23
45 27 66 28 140 l0 86 38 13 c20 7 39 10 40 8 2 -2 27 -81 55 -175 29 -94 72
-229 96 -300 40 -122 44 -129 69 -129 15 0 27 4 28 8 0 4 -33 112 -75 240 -81
251 -176 550 -226 717 -18 58 -69 222 -115 365 -46 143 -114 357 -150 475 -36
118 -82 265 -101 327 l-36 111 60 229 c33 125 77 298 97 383 52 217 254 1018
266 1058 l11 32 214 2 c118 0 220 1 227 2 6 1 10 -6 8 -14 -2 -8 -13 -49 -24
-90 -25 -95 -27 -222 -3 -305 58 -202 193 -341 406 -421 41 -15 79 -31 83 -34
4 -4 -191 -10 -435 -13 -270 -3 -457 -10 -480 -17 -43 -12 -55 -35 -28 -50 26
-14 223 -27 595 -40 170 -6 312 -13 315 -16 3 -3 6 -629 8 -1390 l3 -1384 36
0 36 0 -4 1388 -4 1387 257 3 257 2 1 -797 c0 -744 2 -912 15 -1279 l6 -142
-36 -6 c-43 -8 -44 -17 -6 -127 51 -146 51 -148 74 -151 22 -3 22 -5 25 -243
1 -132 6 -243 11 -248 5 -5 56 -6 116 -2 l106 7 6 29 c3 16 9 29 12 29 4 0 50
-13 101 -30 117 -37 279 -54 419 -46 107 6 151 21 151 51 0 18 12 19 29 3 17
-18 203 -18 208 -1 3 9 17 11 41 8 321 -45 336 -46 432 -35 110 12 156 25 164
46 5 14 -2 22 -49 59 -19 15 -16 15 35 10 30 -4 93 -15 140 -25 111 -24 266
-40 396 -40 l104 0 25 40 c14 22 25 42 25 44 0 3 -62 37 -137 75 -76 39 -173
97 -215 128 l-78 58 0 63 0 64 38 -4 37 -3 12 95 c23 174 24 175 61 178 17 2
32 9 32 15 0 7 0 512 0 1123 l0 1111 172 9 c95 4 181 7 191 6 13 -1 17 3 15
15 -2 12 -13 18 -30 18 -15 -1 -24 3 -22 7 3 4 17 8 32 8 15 0 34 5 42 11 11
8 3 9 -30 5 -25 -3 -117 -6 -205 -8 l-160 -3 -3 42 c-3 40 -9 48 -80 110 -43
38 -120 101 -172 140 -52 40 -185 141 -295 225 -253 194 -323 244 -409 296
l-70 42 460 1 c252 1 486 2 519 3 33 0 125 -1 205 -2 l145 -2 89 -297 c49
-164 133 -440 187 -613 54 -173 131 -425 172 -560 l74 -245 -33 -125 c-17 -69
-67 -253 -109 -410 -42 -157 -132 -501 -201 -765 -68 -264 -147 -565 -174
-670 -77 -291 -75 -275 -40 -275 12 0 21 13 28 37 5 21 41 153 80 293 39 140
87 320 107 400 30 120 98 371 237 875 10 39 46 173 78 299 32 125 61 230 63
232 1 2 36 -97 76 -219 39 -122 189 -576 333 -1009 l260 -788 29 0 c16 0 29 4
29 8 0 4 -23 70 -50 147 -28 76 -100 292 -161 479 -61 188 -148 454 -194 592
-112 336 -219 665 -260 797 l-33 108 95 382 c122 493 281 1088 339 1268 l15
46 447 8 c491 9 520 10 528 17 2 3 2 24 -2 47 l-7 41 -51 0 c-28 0 -81 3 -118
6 l-66 7 -7 59 -7 60 -165 -7 -165 -8 7 59 c15 128 88 678 135 1014 27 195 67
495 90 665 22 171 43 325 46 342 5 26 2 34 -12 40 -11 4 -44 21 -74 39 -30 17
-77 44 -105 59 -27 15 -151 84 -275 154 -374 212 -783 431 -804 431 -12 0 -28
-5 -36 -9z m54 -123 c10 -182 14 -508 7 -513 -4 -2 -41 16 -82 40 l-74 44 -2
50 c-2 72 -36 126 -97 158 -34 18 -106 19 -136 3 -29 -16 -59 -9 -153 34 -68
31 -98 56 -66 56 12 0 410 163 509 209 36 16 70 30 77 30 7 1 13 -36 17 -111z
m256 -23 c36 -20 70 -41 75 -47 13 -13 -264 132 -296 155 -27 19 121 -53 221
-108z m135 -83 c-3 -3 -11 0 -18 7 -9 10 -8 11 6 5 10 -3 15 -9 12 -12z m832
-504 c-3 -7 -5 -2 -5 12 0 14 2 19 5 13 2 -7 2 -19 0 -25z m-4327 -57 c0 -5
20 -19 44 -30 l43 -21 44 25 c46 26 97 32 129 15 27 -14 35 -71 16 -108 -38
-74 -117 -103 -186 -67 -32 16 -41 6 -14 -16 35 -29 44 -63 31 -115 -15 -57
-23 -59 -111 -20 l-55 25 15 30 c21 43 28 121 12 151 -7 13 -24 27 -37 30 -14
3 -26 10 -28 16 -6 18 56 94 77 94 11 0 20 -4 20 -9z m4317 -13 c-3 -8 -6 -5
-6 6 -1 11 2 17 5 13 3 -3 4 -12 1 -19z m-7192 -371 c17 -58 20 -127 5 -127
-9 0 -12 8 -15 55 -3 47 -18 116 -26 121 -5 3 -9 10 -9 16 0 26 31 -19 45 -65z
m-55 -11 c-5 -25 -10 -49 -9 -53 4 -26 -2 -63 -10 -58 -11 6 -6 56 11 123 14
57 21 47 8 -12z m2620 -1 c-14 -8 -29 -14 -35 -14 -5 0 1 6 15 14 14 8 30 14
35 14 6 0 -1 -6 -15 -14z m-75 -33 c-29 -24 -85 -62 -92 -62 -4 0 14 16 41 35
44 31 75 48 51 27z m-2520 -12 c3 -5 1 -10 -4 -10 -6 0 -11 5 -11 10 0 6 2 10
4 10 3 0 8 -4 11 -10z m3131 -21 c3 -6 -5 -3 -20 6 -14 10 -26 19 -26 22 0 7
39 -17 46 -28z m-3126 -25 c0 -8 -4 -12 -10 -9 -5 3 -10 13 -10 21 0 8 5 12
10 9 6 -3 10 -13 10 -21z m3165 -4 c10 -11 16 -20 13 -20 -3 0 -13 9 -23 20
-10 11 -16 20 -13 20 3 0 13 -9 23 -20z m-3190 -76 l16 -39 -20 25 c-11 14
-21 34 -21 44 0 26 6 18 25 -30z m574 -63 c-31 -10 -62 -22 -70 -26 -11 -7
-11 -5 1 9 19 24 47 35 90 35 32 0 30 -2 -21 -18z m-897 -18 c48 -43 -11 -78
-120 -70 -82 6 -92 11 -71 32 48 48 156 70 191 38z m1098 -9 c-130 -29 -260
-42 -260 -25 0 6 6 14 13 17 27 10 216 32 282 32 l70 0 -105 -24z m5227 8 c11
-7 -51 -161 -149 -372 -40 -86 -157 -347 -193 -430 -18 -41 -44 -100 -58 -130
-15 -30 -74 -161 -131 -290 l-105 -235 -288 -6 c-158 -3 -618 -7 -1022 -8
-585 -1 -731 2 -724 12 6 6 77 143 158 302 81 160 177 343 212 408 35 65 129
249 208 408 79 159 149 296 155 304 7 8 24 15 39 14 l26 -1 -25 -8 c-14 -4
-20 -8 -14 -9 15 -1 10 -44 -5 -49 -9 -3 -11 2 -6 17 4 12 2 21 -4 21 -6 0
-12 -4 -12 -10 -3 -20 -4 -25 -12 -37 -4 -7 -5 -25 -2 -40 l5 -28 -11 25 -11
25 -9 -24 c-8 -19 -6 -27 6 -33 8 -5 15 -20 15 -33 0 -29 16 -41 35 -25 9 8
20 8 31 2 14 -8 11 -11 -19 -21 -20 -7 -38 -17 -41 -24 -2 -7 -5 -2 -5 9 -1
24 -28 94 -37 94 -3 0 -3 -15 1 -32 5 -29 4 -31 -6 -13 -12 18 -13 17 -24 -15
-7 -19 -11 -51 -10 -70 3 -33 2 -33 -4 -5 -6 29 -7 28 -37 -35 -39 -80 -50
-115 -35 -106 7 5 11 -5 11 -28 0 -26 5 -36 20 -41 17 -6 18 -8 6 -21 -21 -21
-38 -18 -31 6 4 12 2 20 -5 20 -7 0 -10 8 -7 20 3 11 2 22 -2 24 -12 8 -42
-34 -39 -52 2 -9 -7 -27 -19 -38 -13 -12 -23 -29 -23 -38 0 -9 -5 -16 -11 -16
-5 0 -8 -4 -5 -8 3 -5 -4 -21 -15 -38 -11 -16 -36 -62 -55 -103 -26 -54 -32
-76 -24 -86 7 -8 7 -16 2 -19 -6 -3 -13 2 -17 12 -5 14 -9 11 -21 -17 -8 -18
-14 -38 -13 -45 0 -6 6 2 13 17 l12 28 12 -26 c7 -14 12 -32 12 -40 0 -8 5
-15 10 -15 6 0 10 5 10 10 0 6 5 10 10 10 6 0 10 -9 10 -20 0 -11 5 -20 10
-20 6 0 5 -8 -2 -19 -9 -15 -15 -17 -25 -9 -9 7 -13 7 -13 -1 0 -6 -7 -11 -15
-11 -8 0 -15 -4 -15 -10 0 -5 -7 -10 -15 -10 -8 0 -12 6 -9 13 3 8 -2 14 -10
14 -11 0 -14 -7 -10 -24 4 -13 2 -23 -5 -23 -14 0 -27 50 -15 59 9 6 34 47 34
56 0 3 -4 5 -9 5 -5 0 -23 -30 -41 -66 -23 -48 -29 -69 -21 -77 8 -8 11 -5 11
11 0 35 16 26 26 -15 8 -35 12 -38 43 -38 30 0 34 -3 35 -27 1 -16 -2 -28 -7
-28 -4 0 -6 -4 -3 -9 3 -5 15 -7 26 -4 12 3 18 8 15 11 -2 3 1 12 7 20 10 11
9 17 -6 27 -17 13 -17 14 0 23 22 12 65 -13 58 -33 -7 -17 34 -31 49 -16 8 8
6 15 -8 24 -10 8 -15 19 -11 25 5 8 -4 12 -28 12 -20 0 -36 4 -36 9 0 13 -35
20 -53 10 -8 -5 -23 -6 -31 -3 -27 10 1 34 40 34 18 0 36 5 39 10 3 6 18 10
32 10 22 0 24 3 19 25 -5 18 -2 27 9 31 20 8 24 3 27 -29 3 -32 14 -35 21 -7
4 14 14 20 35 20 17 0 34 5 38 12 5 8 -3 9 -28 5 -31 -5 -37 -2 -41 15 -4 14
-11 19 -21 15 -17 -7 -40 25 -28 38 4 4 7 28 7 53 l0 47 45 0 c39 -1 45 -4 48
-24 3 -17 9 -22 23 -18 15 4 19 0 19 -19 0 -13 4 -24 9 -24 18 0 41 12 41 22
0 15 -27 38 -44 38 -10 0 -16 9 -16 25 0 18 -5 25 -18 25 -22 0 -47 42 -38 65
3 9 10 14 15 11 5 -3 12 1 15 10 7 18 31 14 31 -6 0 -7 5 -15 11 -17 7 -2 11
11 11 37 0 46 -11 50 -49 16 -26 -25 -26 -25 -31 -4 -8 30 -1 37 44 44 39 6
39 7 39 50 0 46 8 52 47 37 15 -6 13 -9 -12 -14 -27 -6 -25 -7 15 -9 l45 -2
-39 -12 c-53 -17 -56 -33 -6 -28 27 3 40 0 40 -8 0 -9 12 -11 40 -6 38 6 40 5
40 -19 0 -24 -2 -25 -40 -19 -25 4 -40 3 -40 -4 0 -14 25 -22 65 -22 19 0 37
-4 40 -10 3 -5 1 -10 -4 -10 -6 0 -11 -7 -11 -16 0 -20 30 -14 44 9 9 14 7 20
-6 28 -27 15 -22 39 7 39 22 0 25 4 25 34 0 25 7 40 26 55 15 12 33 21 40 21
8 0 14 10 14 24 0 19 7 26 30 31 26 6 28 9 18 25 -9 14 -9 25 -1 43 9 18 9 27
0 36 -15 15 -50 14 -44 -2 3 -9 -7 -12 -37 -10 -22 2 -34 0 -26 -4 14 -6 70
-61 70 -68 0 -2 -19 -3 -43 -2 l-43 2 1 52 c0 29 -4 55 -10 56 -11 4 12 37 26
37 4 0 9 -12 11 -27 4 -31 20 -40 40 -20 7 8 24 19 36 26 18 10 23 9 28 -3 3
-8 16 -13 30 -12 35 4 30 20 -8 26 -34 5 -48 36 -15 34 9 -1 17 2 17 7 0 5 11
3 23 -6 16 -10 35 -13 56 -9 40 8 34 29 -8 28 -19 -1 -31 3 -31 10 0 21 65 18
85 -4 21 -23 35 -26 35 -6 0 8 -11 17 -25 20 -23 6 -36 26 -16 26 5 0 12 18
16 41 7 40 8 41 41 34 37 -7 43 1 17 20 -15 11 -15 15 -4 29 9 11 10 16 2 16
-6 0 -11 -4 -11 -9 0 -14 -53 -6 -58 8 -2 6 -14 11 -27 11 -13 0 -26 4 -29 9
-3 4 7 8 22 8 15 0 117 3 227 6 110 4 430 7 710 8 281 0 530 5 555 10 26 4
-314 6 -789 3 -459 -2 -832 -2 -829 2 3 3 302 9 665 13 970 10 988 10 1000 3z
m-1710 -19 c-20 -2 -52 -2 -70 0 -17 2 0 4 38 4 39 0 53 -2 32 -4z m71 -22
c22 -14 -8 -20 -64 -13 l-49 7 45 6 c25 3 47 7 50 7 3 1 11 -2 18 -7z m-3641
-7 c-3 -3 -12 -4 -19 -1 -8 3 -5 6 6 6 11 1 17 -2 13 -5z m3428 -4 c-28 -12
-37 -12 -30 0 3 6 16 10 28 9 21 0 21 -1 2 -9z m62 4 c-3 -3 -12 -4 -19 -1 -8
3 -5 6 6 6 11 1 17 -2 13 -5z m200 0 c-3 -3 -12 -4 -19 -1 -8 3 -5 6 6 6 11 1
17 -2 13 -5z m-107 -24 c12 -8 9 -10 -12 -10 -16 0 -28 5 -28 10 0 13 20 13
40 0z m177 -26 c-3 -3 -12 -4 -19 -1 -8 3 -5 6 6 6 11 1 17 -2 13 -5z m-367
-13 c0 -6 -4 -13 -10 -16 -5 -3 -10 1 -10 9 0 9 5 16 10 16 6 0 10 -4 10 -9z
m-35 -11 c3 -5 1 -10 -4 -10 -6 0 -11 5 -11 10 0 6 2 10 4 10 3 0 8 -4 11 -10z
m155 -4 c0 -9 -30 -14 -35 -6 -4 6 3 10 14 10 12 0 21 -2 21 -4z m230 -11 c0
-8 -2 -15 -4 -15 -2 0 -6 7 -10 15 -3 8 -1 15 4 15 6 0 10 -7 10 -15z m-298
-47 c-9 -9 -12 -7 -12 12 0 19 3 21 12 12 9 -9 9 -15 0 -24z m196 14 c2 -7 -6
-12 -17 -12 -21 0 -27 11 -14 24 9 9 26 2 31 -12z m76 -4 c24 -34 20 -45 -16
-40 -35 5 -48 17 -48 45 0 25 45 22 64 -5z m-135 -37 c12 -8 10 -12 -12 -22
-32 -15 -34 -33 -6 -52 13 -9 16 -17 10 -22 -6 -3 -11 -1 -11 4 0 6 -9 11 -19
11 -27 0 -33 26 -16 61 16 30 30 35 54 20z m69 -33 c-6 -18 -28 -21 -28 -4 0
9 7 16 16 16 9 0 14 -5 12 -12z m-194 -7 c7 -11 -20 -48 -29 -39 -9 8 4 48 15
48 5 0 11 -4 14 -9z m-181 -21 c3 -11 1 -20 -4 -20 -5 0 -9 9 -9 20 0 11 2 20
4 20 2 0 6 -9 9 -20z m-4602 -38 c19 -10 34 -23 32 -29 -2 -6 3 -13 12 -16 8
-4 15 -1 15 5 0 6 10 0 23 -14 13 -14 30 -27 38 -30 8 -3 12 -8 9 -11 -9 -9
-134 38 -168 63 -59 44 -30 67 39 32z m4685 -16 c18 -14 18 -15 -6 -24 -26
-10 -48 7 -35 28 8 14 18 13 41 -4z m-506 -37 c-53 -48 -209 -154 -216 -146
-3 2 20 18 50 35 30 17 87 58 126 92 82 68 109 81 40 19z m600 10 c0 -10 -5
-19 -12 -19 -8 0 -7 -5 3 -16 21 -20 13 -64 -11 -64 -22 0 -44 25 -35 41 6 8
10 8 16 -2 6 -11 9 -10 15 4 3 9 2 23 -4 30 -12 15 3 61 18 52 5 -3 10 -15 10
-26z m-218 -32 c-4 -16 -6 -17 -13 -5 -4 8 -5 25 -2 38 6 22 7 22 13 5 4 -11
5 -28 2 -38z m-3236 -83 c-84 -76 -114 -91 -36 -17 41 39 77 69 80 66 3 -3
-17 -25 -44 -49z m3359 23 c15 -4 14 -5 -7 -6 -21 -1 -28 4 -28 17 0 11 3 13
8 6 4 -7 16 -14 27 -17z m-120 3 c3 -5 1 -10 -4 -10 -6 0 -11 5 -11 10 0 6 2
10 4 10 3 0 8 -4 11 -10z m-3350 -27 c-20 -14 -39 -22 -42 -19 -4 3 -1 6 6 6
7 0 11 7 8 14 -4 11 -1 13 10 9 9 -4 14 -2 11 3 -4 5 5 10 19 10 23 2 22 0
-12 -23z m40 -18 c-53 -47 -109 -79 -127 -73 -6 2 16 18 48 36 33 17 73 43 89
56 50 42 43 28 -10 -19z m3556 -15 c5 0 9 -7 9 -15 0 -21 -56 -20 -64 1 -4 10
3 26 16 40 l23 23 3 -24 c2 -14 8 -25 13 -25z m-3641 36 c0 -2 -17 -16 -37
-31 l-38 -27 33 31 c30 29 42 37 42 27z m3503 -16 c6 -23 6 -24 -27 -9 -28 13
-26 29 3 29 10 0 21 -9 24 -20z m-183 -53 c0 -5 -4 -5 -10 -2 -5 3 -10 14 -10
23 0 15 2 15 10 2 5 -8 10 -19 10 -23z m-3494 -84 c16 -38 18 -89 4 -98 -6 -3
-7 1 -4 10 4 9 -1 23 -9 33 -18 19 -41 72 -38 86 1 4 -5 19 -14 32 -25 39 -16
41 16 4 17 -19 37 -49 45 -67z m3744 57 c16 0 32 -5 35 -10 8 -13 -25 -26 -34
-14 -3 5 -18 15 -33 23 -15 8 -25 18 -21 24 3 5 10 2 15 -7 5 -9 22 -16 38
-16z m-275 0 c3 -5 1 -10 -4 -10 -6 0 -11 5 -11 10 0 6 2 10 4 10 3 0 8 -4 11
-10z m-3531 -61 c12 -23 12 -28 2 -20 -12 11 -29 51 -21 51 2 0 10 -14 19 -31z
m3514 14 c-2 -10 -10 -17 -16 -15 -21 4 -13 -25 8 -31 12 -3 18 -11 15 -19 -6
-16 -63 -43 -73 -34 -8 8 48 116 60 116 5 0 8 -8 6 -17z m32 7 c0 -5 -4 -10
-10 -10 -5 0 -10 5 -10 10 0 6 5 10 10 10 6 0 10 -4 10 -10z m-559 -163 c-6
-57 -15 -114 -21 -128 -10 -23 -10 -23 -6 6 3 17 11 79 17 139 7 61 14 105 17
98 2 -6 -1 -58 -7 -115z m-3586 93 c-11 -4 -51 -22 -89 -39 -58 -26 -67 -28
-52 -12 26 29 96 61 131 60 26 0 27 -1 10 -9z m4125 -47 c-1 -25 -14 -53 -25
-53 -7 0 -15 -4 -17 -10 -5 -14 -48 0 -48 16 0 8 -4 14 -10 14 -13 0 -13 -4 5
-47 8 -19 15 -39 15 -43 0 -7 -51 -33 -54 -28 -1 2 -7 11 -14 20 -11 14 -9 24
9 60 25 49 50 72 60 56 4 -6 11 -8 17 -4 6 3 12 0 14 -6 3 -8 9 -4 17 10 11
21 31 31 31 15z m-406 -147 c78 -85 99 -116 79 -116 -13 1 -194 48 -198 52 -7
6 18 158 25 158 4 0 46 -42 94 -94z m325 -19 c12 -15 5 -27 -16 -27 -7 0 -13
9 -13 20 0 23 13 26 29 7z m-47 -29 c-7 -7 -12 -8 -12 -2 0 14 12 26 19 19 2
-3 -1 -11 -7 -17z m-3202 -288 l0 -260 -360 0 -360 0 0 103 c0 57 -3 172 -7
255 l-6 151 94 4 c52 1 217 4 367 5 l272 2 0 -260z m2897 214 c-3 -3 -12 -4
-19 -1 -8 3 -5 6 6 6 11 1 17 -2 13 -5z m58 -14 c13 -5 14 -9 5 -9 -8 0 -24 4
-35 9 -13 5 -14 9 -5 9 8 0 24 -4 35 -9z m-1767 -477 c-16 -2 -40 -2 -55 0
-16 2 -3 4 27 4 30 0 43 -2 28 -4z m175 0 c-23 -2 -64 -2 -90 0 -26 2 -7 3 42
3 50 0 71 -1 48 -3z m95 0 c-10 -2 -26 -2 -35 0 -10 3 -2 5 17 5 19 0 27 -2
18 -5z m1025 0 c-18 -2 -48 -2 -65 0 -18 2 -4 4 32 4 36 0 50 -2 33 -4z m230
0 c-13 -2 -33 -2 -45 0 -13 2 -3 4 22 4 25 0 35 -2 23 -4z m-2003 -13 c-30 -5
-61 -4 -70 1 -10 5 10 8 55 7 l70 0 -55 -8z m238 3 c-32 -2 -84 -2 -115 0 -32
2 -6 3 57 3 63 0 89 -1 58 -3z m-1270 -10 c-136 -2 -361 -2 -500 0 -139 1 -28
2 247 2 275 0 389 -1 253 -2z m775 0 c-95 -2 -251 -2 -345 0 -95 1 -18 3 172
3 190 0 267 -2 173 -3z m4606 -9 c2 -2 -187 -3 -420 -2 -351 2 -389 3 -219 8
196 6 630 2 639 -6z m1248 10 c-3 -3 -12 -4 -19 -1 -8 3 -5 6 6 6 11 1 17 -2
13 -5z m161 -1 c-10 -2 -28 -2 -40 0 -13 2 -5 4 17 4 22 1 32 -1 23 -4z m49 1
c-3 -3 -12 -4 -19 -1 -8 3 -5 6 6 6 11 1 17 -2 13 -5z m101 -1 c-15 -2 -42 -2
-60 0 -18 2 -6 4 27 4 33 0 48 -2 33 -4z m95 0 c-7 -2 -19 -2 -25 0 -7 3 -2 5
12 5 14 0 19 -2 13 -5z m-4253 -13 c196 -5 137 -6 -205 -3 -264 3 -482 7 -484
9 -6 6 370 2 689 -6z m310 0 c0 -5 -5 -10 -11 -10 -5 0 -7 5 -4 10 3 6 8 10
11 10 2 0 4 -4 4 -10z m927 4 c-3 -3 -12 -4 -19 -1 -8 3 -5 6 6 6 11 1 17 -2
13 -5z m340 0 c-3 -3 -12 -4 -19 -1 -8 3 -5 6 6 6 11 1 17 -2 13 -5z m160 0
c-3 -3 -12 -4 -19 -1 -8 3 -5 6 6 6 11 1 17 -2 13 -5z m1818 -4 l-50 -6 50 -5
c78 -7 -653 2 -810 11 -95 5 21 7 360 7 275 0 478 -3 450 -7z m-5755 -15 c344
-4 630 -8 635 -10 6 -2 -424 -4 -955 -4 -531 0 -974 -2 -984 -3 -10 -2 -21 3
-23 9 -5 14 190 20 522 16 99 -1 461 -5 805 -8z m705 -5 c3 -6 -1 -7 -9 -4
-18 7 -21 14 -7 14 6 0 13 -4 16 -10z m868 -7 c-13 -2 -33 -2 -45 0 -13 2 -3
4 22 4 25 0 35 -2 23 -4z m150 0 c-18 -2 -48 -2 -65 0 -18 2 -4 4 32 4 36 0
50 -2 33 -4z m140 0 c-7 -2 -19 -2 -25 0 -7 3 -2 5 12 5 14 0 19 -2 13 -5z
m2780 0 c-7 -2 -21 -2 -30 0 -10 3 -4 5 12 5 17 0 24 -2 18 -5z m290 0 c-13
-2 -33 -2 -45 0 -13 2 -3 4 22 4 25 0 35 -2 23 -4z m1640 0 c-13 -2 -33 -2
-45 0 -13 2 -3 4 22 4 25 0 35 -2 23 -4z m170 0 c-7 -2 -19 -2 -25 0 -7 3 -2
5 12 5 14 0 19 -2 13 -5z m-3293 -53 c22 -11 40 -23 40 -25 0 -5 -79 32 -89
41 -11 10 14 2 49 -16z m-2794 2 c-3 -5 -66 -254 -141 -553 -175 -698 -243
-964 -257 -997 -10 -26 -12 -24 -35 47 -31 94 -126 405 -193 631 -109 366
-173 577 -219 721 l-49 149 337 3 c185 1 387 3 449 5 62 1 111 -2 108 -6z
m5086 -23 c-2 -13 -19 -82 -38 -154 -117 -446 -241 -924 -294 -1142 -34 -139
-66 -250 -71 -247 -5 3 -9 11 -9 19 0 8 -31 114 -69 237 -39 123 -145 464
-236 758 -91 294 -168 541 -171 549 -4 11 67 13 443 9 l448 -4 -3 -25z m-2842
-64 c13 -14 21 -25 18 -25 -2 0 -15 11 -28 25 -13 14 -21 25 -18 25 2 0 15
-11 28 -25z m-3112 -70 c-3 -3 -9 2 -12 12 -6 14 -5 15 5 6 7 -7 10 -15 7 -18z
m119 -387 c-3 -8 -6 -5 -6 6 -1 11 2 17 5 13 3 -3 4 -12 1 -19z m31 -93 c-3
-3 -9 2 -12 12 -6 14 -5 15 5 6 7 -7 10 -15 7 -18z m4453 -62 c13 -16 12 -17
-3 -4 -10 7 -18 15 -18 17 0 8 8 3 21 -13z m-3914 -115 c-3 -8 -6 -5 -6 6 -1
11 2 17 5 13 3 -3 4 -12 1 -19z m-480 -40 c-3 -8 -6 -5 -6 6 -1 11 2 17 5 13
3 -3 4 -12 1 -19z m4731 -5 c-27 -2 -69 -2 -95 0 -27 2 -5 3 47 3 52 0 74 -1
48 -3z m-2913 -20 c29 -5 -193 -10 -524 -11 -316 -1 -572 0 -569 4 19 18 981
24 1093 7z m2753 10 c-10 -2 -26 -2 -35 0 -10 3 -2 5 17 5 19 0 27 -2 18 -5z
m-4111 -35 c-3 -8 -6 -5 -6 6 -1 11 2 17 5 13 3 -3 4 -12 1 -19z m-440 -20
c-3 -8 -6 -5 -6 6 -1 11 2 17 5 13 3 -3 4 -12 1 -19z m1632 -155 l-2 -108 -8
85 c-8 78 -6 130 6 130 3 0 4 -48 4 -107z m3862 20 c-12 -20 -14 -14 -5 12 4
9 9 14 11 11 3 -2 0 -13 -6 -23z m-5094 -5 c-3 -8 -6 -5 -6 6 -1 11 2 17 5 13
3 -3 4 -12 1 -19z m-350 -30 c-3 -8 -6 -5 -6 6 -1 11 2 17 5 13 3 -3 4 -12 1
-19z m5430 -20 c-3 -8 -6 -5 -6 6 -1 11 2 17 5 13 3 -3 4 -12 1 -19z m-5408
-38 c0 -10 -3 -8 -9 5 -12 27 -12 43 0 25 5 -8 9 -22 9 -30z m5392 -41 c-5
-13 -10 -19 -10 -12 -1 15 10 45 15 40 3 -2 0 -15 -5 -28z m-5374 -31 c-3 -8
-6 -5 -6 6 -1 11 2 17 5 13 3 -3 4 -12 1 -19z m1540 -40 c-3 -8 -6 -5 -6 6 -1
11 2 17 5 13 3 -3 4 -12 1 -19z m3810 -20 c-3 -7 -5 -2 -5 12 0 14 2 19 5 13
2 -7 2 -19 0 -25z m-230 -20 c-3 -8 -6 -5 -6 6 -1 11 2 17 5 13 3 -3 4 -12 1
-19z m203 -75 c-11 -17 -11 -17 -6 0 3 10 6 24 7 30 0 9 2 9 5 0 3 -7 0 -20
-6 -30z m-3783 -15 c-3 -8 -6 -5 -6 6 -1 11 2 17 5 13 3 -3 4 -12 1 -19z
m3770 -50 c-3 -7 -5 -2 -5 12 0 14 2 19 5 13 2 -7 2 -19 0 -25z m-5230 -30
c-3 -8 -6 -5 -6 6 -1 11 2 17 5 13 3 -3 4 -12 1 -19z m5136 -135 c4 -23 -4 -8
-18 37 -14 41 -25 80 -24 85 0 19 37 -84 42 -122z m71 73 c-3 -15 -8 -25 -11
-23 -2 3 -1 17 3 31 3 15 8 25 11 23 2 -3 1 -17 -3 -31z m-94 -368 c-27 -105
-150 -556 -166 -611 -3 -10 -8 -16 -11 -14 -2 3 30 128 72 278 41 151 87 323
102 383 15 60 29 104 31 98 2 -6 -11 -67 -28 -134z m-4945 -173 c42 -137 112
-362 156 -500 157 -487 212 -665 207 -670 -2 -2 -25 -5 -52 -7 l-49 -3 -36 68
c-71 134 -153 200 -301 243 -48 14 -98 18 -192 18 -71 0 -128 3 -128 7 0 4 38
146 84 315 47 170 112 413 146 539 78 293 71 271 80 254 4 -8 42 -126 85 -264z
m5274 -465 c0 -10 -3 -8 -9 5 -12 27 -12 43 0 25 5 -8 9 -22 9 -30z m-534
-113 c-14 -52 -25 -98 -25 -103 0 -4 -2 -5 -5 -2 -3 3 6 54 21 114 15 60 29
103 31 98 2 -6 -8 -54 -22 -107z m595 -62 c16 -49 28 -90 26 -92 -2 -3 -16 33
-31 79 -16 46 -30 90 -33 98 -3 8 -2 12 2 9 3 -3 20 -46 36 -94z m-636 -89
c-3 -15 -8 -25 -11 -23 -2 3 -1 17 3 31 3 15 8 25 11 23 2 -3 1 -17 -3 -31z
m673 -38 c-3 -8 -6 -5 -6 6 -1 11 2 17 5 13 3 -3 4 -12 1 -19z m-692 -38 c-9
-41 -17 -33 -9 9 4 17 9 30 11 27 3 -2 2 -19 -2 -36z m-18 -62 c-3 -8 -6 -5
-6 6 -1 11 2 17 5 13 3 -3 4 -12 1 -19z m-5029 -14 c-153 -27 -277 -88 -414
-203 -16 -14 -6 -3 23 26 99 98 307 189 433 191 19 0 1 -6 -42 -14z m5009 -66
c-3 -8 -6 -5 -6 6 -1 11 2 17 5 13 3 -3 4 -12 1 -19z m-20 -70 c-3 -8 -6 -5
-6 6 -1 11 2 17 5 13 3 -3 4 -12 1 -19z m-4722 -83 c49 -41 60 -45 93 -41 l37
6 -41 -14 c-80 -27 -137 -75 -160 -135 l-14 -36 7 35 c9 44 8 57 -1 153 -10
95 -2 98 79 32z m4702 3 c-3 -8 -6 -5 -6 6 -1 11 2 17 5 13 3 -3 4 -12 1 -19z
m-1070 -145 c-4 -82 -12 -166 -18 -188 -7 -25 -9 -79 -6 -146 l6 -106 -130 64
-130 65 3 96 3 97 69 3 c39 2 77 7 87 12 20 11 29 52 29 130 0 32 3 72 6 89 6
29 10 31 47 31 l40 0 -6 -147z m-3407 101 c0 -2 -16 -4 -36 -4 -19 0 -33 4
-30 8 5 8 66 4 66 -4z m75 -29 c52 -32 40 -32 -22 0 -26 13 -41 25 -33 25 8 0
33 -11 55 -25z m160 -42 c-42 -16 -98 -19 -118 -6 -7 5 16 11 53 14 103 9 107
8 65 -8z m-1228 -65 c-45 -176 6 -341 123 -392 19 -8 29 -15 22 -16 -26 0 -91
41 -116 73 -52 67 -74 189 -55 292 9 51 33 115 42 115 2 0 -5 -33 -16 -72z
m1158 -18 c3 -5 1 -10 -4 -10 -6 0 -11 5 -11 10 0 6 2 10 4 10 3 0 8 -4 11
-10z m4252 -42 c-3 -8 -6 -5 -6 6 -1 11 2 17 5 13 3 -3 4 -12 1 -19z m-4730
-30 c-3 -8 -6 -5 -6 6 -1 11 2 17 5 13 3 -3 4 -12 1 -19z m83 -19 c-14 -4 -34
-7 -44 -8 -28 -1 -7 16 24 21 35 6 50 -5 20 -13z m2871 -7 c4 -4 19 -84 33
-179 14 -94 29 -187 33 -205 l6 -32 -24 24 c-14 14 -62 45 -107 70 -114 62
-211 130 -236 163 -15 21 -22 47 -24 104 l-4 76 158 -7 c88 -4 162 -11 165
-14z m-2971 -2 c0 -5 -21 -10 -46 -10 -27 0 -43 4 -39 10 3 6 24 10 46 10 21
0 39 -4 39 -10z m27 -42 c-3 -8 -6 -5 -6 6 -1 11 2 17 5 13 3 -3 4 -12 1 -19z
m386 8 c22 -17 22 -26 -2 -26 -21 0 -45 23 -34 33 9 10 15 8 36 -7z m-526 -82
c-3 -3 -12 -4 -19 -1 -8 3 -5 6 6 6 11 1 17 -2 13 -5z m4324 -31 c10 -12 5
-11 -18 6 -18 12 -33 24 -33 27 0 9 37 -15 51 -33z m-4414 -21 c-29 -26 -61
-54 -72 -62 -11 -8 9 14 45 48 36 34 68 62 72 62 4 0 -17 -22 -45 -48z m205
-7 c15 -26 28 -86 18 -80 -4 3 -11 20 -14 38 -3 19 -17 44 -31 57 -14 13 -25
28 -25 33 0 13 39 -22 52 -48z m118 10 c19 -14 30 -25 24 -25 -10 0 -73 49
-63 50 3 0 20 -11 39 -25z m4567 -7 c-3 -8 -6 -5 -6 6 -1 11 2 17 5 13 3 -3 4
-12 1 -19z m-5001 -83 c-11 -8 -25 -15 -30 -15 -6 1 0 7 14 15 32 19 40 18 16
0z"/>
<path d="M6745 6800 c3 -5 10 -10 16 -10 5 0 9 5 9 10 0 6 -7 10 -16 10 -8 0
-12 -4 -9 -10z"/>
<path d="M6968 6803 c7 -3 16 -2 19 1 4 3 -2 6 -13 5 -11 0 -14 -3 -6 -6z"/>
<path d="M7052 6789 c-10 -15 -11 -24 -3 -32 13 -13 18 -9 26 26 8 32 -5 36
-23 6z"/>
<path d="M7143 6803 c28 -4 38 -23 12 -23 -23 0 -18 -14 11 -27 22 -10 24 -10
19 7 -3 10 -1 21 5 25 23 14 8 25 -32 24 -30 -2 -35 -3 -15 -6z"/>
<path d="M7220 6801 c0 -17 14 -18 40 -5 l25 14 -32 0 c-18 0 -33 -4 -33 -9z"/>
<path d="M5898 6793 c6 -2 18 -2 25 0 6 3 1 5 -13 5 -14 0 -19 -2 -12 -5z"/>
<path d="M5980 6790 c0 -5 11 -10 25 -10 14 0 25 5 25 10 0 6 -11 10 -25 10
-14 0 -25 -4 -25 -10z"/>
<path d="M6126 6785 c4 -8 12 -15 20 -15 19 0 18 16 -2 24 -22 9 -24 8 -18 -9z"/>
<path d="M6508 6793 c7 -3 16 -2 19 1 4 3 -2 6 -13 5 -11 0 -14 -3 -6 -6z"/>
<path d="M6080 6754 c0 -8 5 -12 10 -9 6 4 8 11 5 16 -9 14 -15 11 -15 -7z"/>
<path d="M6780 6764 c-9 -3 -21 -13 -28 -24 -10 -17 -10 -20 3 -20 8 0 15 5
15 10 0 6 7 10 15 10 8 0 15 7 15 15 0 8 -1 14 -2 14 -2 -1 -10 -3 -18 -5z"/>
<path d="M6180 6750 c36 -12 60 -12 60 0 0 6 -19 10 -42 9 -37 -1 -39 -2 -18
-9z"/>
<path d="M6705 6750 c3 -5 8 -10 11 -10 2 0 4 5 4 10 0 6 -5 10 -11 10 -5 0
-7 -4 -4 -10z"/>
<path d="M6930 6750 c0 -5 5 -10 11 -10 5 0 7 5 4 10 -3 6 -8 10 -11 10 -2 0
-4 -4 -4 -10z"/>
<path d="M6980 6750 c-12 -8 -10 -10 8 -10 13 0 20 4 17 10 -7 12 -6 12 -25 0z"/>
<path d="M7100 6750 c0 -5 5 -10 10 -10 6 0 10 5 10 10 0 6 -4 10 -10 10 -5 0
-10 -4 -10 -10z"/>
<path d="M7296 6745 c4 -8 8 -15 10 -15 2 0 4 7 4 15 0 8 -4 15 -10 15 -5 0
-7 -7 -4 -15z"/>
<path d="M6020 6714 c0 -32 -2 -36 -22 -31 -13 2 -30 8 -39 11 -13 6 -18 0
-21 -23 -3 -21 0 -31 9 -31 7 0 13 7 13 15 0 19 19 20 26 2 3 -8 15 -13 27
-12 16 1 23 10 28 34 7 36 1 71 -12 71 -5 0 -9 -16 -9 -36z"/>
<path d="M6586 6723 c-4 -16 -9 -36 -12 -45 -3 -10 -1 -18 5 -18 6 0 11 9 11
19 0 11 7 26 15 34 12 13 12 17 1 26 -11 9 -15 6 -20 -16z"/>
<path d="M6925 6690 c-7 -12 2 -30 16 -30 12 0 12 27 0 35 -5 3 -12 1 -16 -5z"/>
<path d="M6250 6680 c0 -5 9 -10 21 -10 11 0 17 5 14 10 -3 6 -13 10 -21 10
-8 0 -14 -4 -14 -10z"/>
<path d="M6102 6660 c0 -14 2 -19 5 -12 2 6 2 18 0 25 -3 6 -5 1 -5 -13z"/>
<path d="M6150 6660 c0 -13 5 -18 15 -14 12 5 13 10 4 20 -15 19 -19 18 -19
-6z"/>
<path d="M6325 6658 c-14 -21 -14 -23 0 -26 18 -4 20 -28 3 -35 -10 -4 -10 -7
0 -18 6 -7 12 -21 12 -30 0 -9 7 -23 16 -30 15 -12 16 -11 9 11 -4 13 -8 42
-8 63 0 23 -5 41 -13 44 -21 8 -17 23 6 23 11 0 20 5 20 10 0 18 -29 10 -45
-12z"/>
<path d="M6385 6670 c-3 -5 -1 -10 4 -10 6 0 11 5 11 10 0 6 -2 10 -4 10 -3 0
-8 -4 -11 -10z"/>
<path d="M6615 6660 c3 -5 8 -10 11 -10 2 0 4 5 4 10 0 6 -5 10 -11 10 -5 0
-7 -4 -4 -10z"/>
<path d="M6846 6643 c4 -16 8 -29 8 -30 1 -1 7 11 13 27 10 27 9 30 -8 30 -16
0 -18 -5 -13 -27z"/>
<path d="M6002 6614 c2 -15 9 -29 16 -32 10 -3 13 4 10 24 -2 15 -9 29 -16 32
-10 3 -13 -4 -10 -24z"/>
<path d="M6711 6624 c0 -11 3 -14 6 -6 3 7 2 16 -1 19 -3 4 -6 -2 -5 -13z"/>
<path d="M6525 6610 c3 -5 12 -7 20 -3 21 7 19 13 -6 13 -11 0 -18 -4 -14 -10z"/>
<path d="M7025 6610 c3 -5 8 -10 11 -10 2 0 4 5 4 10 0 6 -5 10 -11 10 -5 0
-7 -4 -4 -10z"/>
<path d="M7210 6596 c0 -9 5 -16 10 -16 6 0 10 4 10 9 0 6 -4 13 -10 16 -5 3
-10 -1 -10 -9z"/>
<path d="M7251 6594 c0 -11 3 -14 6 -6 3 7 2 16 -1 19 -3 4 -6 -2 -5 -13z"/>
<path d="M6168 6588 c9 -9 15 -9 24 0 9 9 7 12 -12 12 -19 0 -21 -3 -12 -12z"/>
<path d="M6260 6590 c0 -5 7 -10 15 -10 8 0 15 5 15 10 0 6 -7 10 -15 10 -8 0
-15 -4 -15 -10z"/>
<path d="M6900 6575 c0 -8 5 -15 10 -15 6 0 10 7 10 15 0 8 -4 15 -10 15 -5 0
-10 -7 -10 -15z"/>
<path d="M6510 6556 c0 -9 7 -16 16 -16 9 0 14 5 12 12 -6 18 -28 21 -28 4z"/>
<path d="M5870 6552 c0 -5 11 -14 25 -20 23 -11 24 -10 13 8 -13 20 -38 28
-38 12z"/>
<path d="M6020 6550 c0 -5 5 -10 10 -10 6 0 10 5 10 10 0 6 -4 10 -10 10 -5 0
-10 -4 -10 -10z"/>
<path d="M6106 6544 c-4 -10 -1 -14 6 -12 15 5 23 28 10 28 -5 0 -13 -7 -16
-16z"/>
<path d="M6465 6551 c-10 -17 12 -21 25 -6 10 12 10 15 -3 15 -9 0 -18 -4 -22
-9z"/>
<path d="M6960 6545 c0 -9 6 -12 15 -9 8 4 15 10 15 15 0 5 -7 9 -15 9 -8 0
-15 -7 -15 -15z"/>
<path d="M5826 6533 c-4 -11 -3 -28 0 -38 6 -15 3 -17 -21 -13 -21 4 -29 1
-32 -13 -3 -10 -9 -16 -14 -13 -5 3 -9 -1 -9 -9 0 -21 29 -30 36 -12 4 8 12
15 20 15 18 0 23 -61 9 -122 -4 -20 -1 -28 9 -28 8 0 17 6 19 13 4 7 6 6 6 -4
1 -26 -24 -42 -48 -30 -11 6 -24 11 -30 11 -19 0 -12 -18 8 -25 12 -3 18 -12
15 -20 -4 -10 0 -12 15 -8 11 3 18 10 14 16 -4 6 2 8 15 5 24 -7 22 -12 25 94
2 41 -2 58 -10 58 -7 0 -13 5 -13 10 0 6 4 10 9 10 5 0 11 11 13 25 4 18 1 25
-10 25 -10 0 -13 7 -10 24 6 32 -7 56 -16 29z"/>
<path d="M6400 6521 c0 -12 29 -23 41 -15 5 3 7 10 4 15 -8 12 -45 12 -45 0z"/>
<path d="M6480 6499 c0 -8 36 -19 63 -19 9 0 17 6 17 13 0 7 -15 12 -40 12
-22 1 -40 -2 -40 -6z"/>
<path d="M5911 6464 c-22 -10 -30 -19 -24 -25 6 -6 20 -4 39 6 16 8 35 15 42
15 7 0 10 5 7 10 -8 13 -23 12 -64 -6z"/>
<path d="M6145 6470 c3 -5 8 -10 11 -10 2 0 4 5 4 10 0 6 -5 10 -11 10 -5 0
-7 -4 -4 -10z"/>
<path d="M6200 6466 c0 -8 5 -18 10 -21 6 -3 10 3 10 14 0 12 -4 21 -10 21 -5
0 -10 -6 -10 -14z"/>
<path d="M6240 6470 c0 -5 4 -10 9 -10 6 0 13 5 16 10 3 6 -1 10 -9 10 -9 0
-16 -4 -16 -10z"/>
<path d="M7068 6450 c-15 -5 -29 -5 -32 -2 -3 3 -6 -2 -6 -10 0 -16 9 -17 40
-5 8 3 22 7 30 9 7 3 10 7 5 10 -6 3 -22 2 -37 -2z"/>
<path d="M6863 6424 c-6 -18 -7 -37 -3 -45 12 -19 23 9 18 48 l-3 28 -12 -31z"/>
<path d="M6105 6430 c-3 -5 -1 -10 4 -10 6 0 11 5 11 10 0 6 -2 10 -4 10 -3 0
-8 -4 -11 -10z"/>
<path d="M6578 6433 c7 -3 16 -2 19 1 4 3 -2 6 -13 5 -11 0 -14 -3 -6 -6z"/>
<path d="M6633 6432 c-8 -5 -9 -13 -3 -22 7 -12 10 -12 16 3 8 21 3 29 -13 19z"/>
<path d="M6705 6430 c-3 -5 -1 -10 4 -10 6 0 11 5 11 10 0 6 -2 10 -4 10 -3 0
-8 -4 -11 -10z"/>
<path d="M6151 6414 c0 -11 3 -14 6 -6 3 7 2 16 -1 19 -3 4 -6 -2 -5 -13z"/>
<path d="M7045 6400 c-3 -5 -1 -10 4 -10 6 0 11 5 11 10 0 6 -2 10 -4 10 -3 0
-8 -4 -11 -10z"/>
<path d="M5752 6385 c-17 -19 -1 -19 24 0 14 11 15 14 4 14 -8 0 -21 -6 -28
-14z"/>
<path d="M6025 6390 c4 -6 11 -8 16 -5 14 9 11 15 -7 15 -8 0 -12 -5 -9 -10z"/>
<path d="M6234 6392 c9 -15 48 -23 43 -9 -2 7 -14 14 -26 15 -13 2 -21 -1 -17
-6z"/>
<path d="M6600 6392 c0 -17 12 -42 19 -42 12 0 5 44 -7 48 -7 2 -12 -1 -12 -6z"/>
<path d="M6736 6388 c-4 -9 -3 -24 2 -34 12 -22 21 -5 12 26 -6 21 -8 22 -14
8z"/>
<path d="M7130 6379 c0 -5 5 -7 10 -4 6 3 10 8 10 11 0 2 -4 4 -10 4 -5 0 -10
-5 -10 -11z"/>
<path d="M6185 6370 c-3 -5 1 -10 10 -10 9 0 13 5 10 10 -3 6 -8 10 -10 10 -2
0 -7 -4 -10 -10z"/>
<path d="M5963 6363 c-38 -7 -26 -23 17 -23 40 0 53 13 24 24 -9 3 -16 5 -17
5 -1 -1 -12 -4 -24 -6z"/>
<path d="M5760 6340 c0 -5 -16 -12 -35 -16 -30 -5 -34 -9 -23 -21 9 -11 9 -19
0 -34 -10 -16 -10 -23 3 -35 29 -29 37 -54 20 -60 -8 -3 -12 -10 -9 -15 9 -16
19 -10 33 22 12 28 12 32 -8 45 -11 8 -21 24 -21 35 0 29 19 61 34 56 6 -3 13
4 13 14 1 10 0 19 -3 19 -2 0 -4 -4 -4 -10z"/>
<path d="M6118 6328 c-6 -15 29 -44 40 -34 3 3 0 6 -7 6 -6 0 -15 10 -20 22
-6 16 -9 18 -13 6z"/>
<path d="M6196 6319 c4 -8 -1 -9 -16 -4 -16 5 -20 4 -15 -5 4 -7 17 -9 31 -6
14 4 24 2 24 -4 0 -5 5 -10 12 -10 6 0 20 -7 30 -17 10 -9 18 -12 18 -7 0 5
-9 15 -21 22 -16 11 -18 16 -9 28 8 9 9 14 2 14 -6 0 -12 -6 -15 -12 -4 -10
-7 -10 -18 0 -16 15 -33 16 -23 1z"/>
<path d="M6012 6313 c-6 -2 -10 -9 -6 -14 8 -14 21 -11 28 6 6 15 1 17 -22 8z"/>
<path d="M6310 6310 c0 -5 -7 -6 -17 -3 -12 5 -14 3 -7 -8 4 -8 9 -20 9 -28 0
-8 5 -16 11 -18 7 -2 10 6 7 22 -4 18 -1 25 11 25 9 0 16 -8 16 -20 0 -12 7
-20 16 -20 11 0 14 5 10 16 -3 9 -6 22 -6 30 0 8 -10 14 -25 14 -14 0 -25 -4
-25 -10z"/>
<path d="M6590 6289 c0 -27 2 -30 15 -19 8 7 15 21 15 31 0 11 -7 19 -15 19
-10 0 -15 -10 -15 -31z"/>
<path d="M6865 6310 c-3 -5 1 -10 9 -10 8 0 18 5 21 10 3 6 -1 10 -9 10 -8 0
-18 -4 -21 -10z"/>
<path d="M6945 6310 c3 -5 8 -10 11 -10 2 0 4 5 4 10 0 6 -5 10 -11 10 -5 0
-7 -4 -4 -10z"/>
<path d="M7061 6308 c0 -7 4 -22 9 -33 6 -16 8 -14 7 13 0 17 -4 32 -9 32 -4
0 -8 -6 -7 -12z"/>
<path d="M6050 6294 c0 -16 32 -35 50 -29 21 7 28 35 9 35 -5 0 -8 -4 -5 -9 3
-5 -1 -12 -9 -15 -9 -3 -18 1 -21 9 -6 14 -24 21 -24 9z"/>
<path d="M5976 6281 c-3 -5 3 -11 13 -14 14 -3 18 -1 14 9 -6 16 -19 18 -27 5z"/>
<path d="M6815 6280 c-3 -5 1 -10 10 -10 9 0 13 5 10 10 -3 6 -8 10 -10 10 -2
0 -7 -4 -10 -10z"/>
<path d="M6145 6269 c-92 -29 -147 -151 -94 -208 18 -20 28 -22 63 -17 44 7
97 43 122 82 22 33 29 104 12 126 -16 22 -64 30 -103 17z m89 -80 c-1 -47 -27
-84 -77 -108 -50 -24 -85 -18 -98 15 -23 62 59 136 146 131 28 -2 30 -5 29
-38z"/>
<path d="M5893 6251 c-7 -10 -9 -22 -6 -25 11 -11 41 -6 46 7 3 6 6 -4 7 -23
2 -22 4 -27 7 -15 3 11 12 26 21 33 14 11 13 12 -5 12 -12 0 -28 7 -37 15 -18
19 -19 19 -33 -4z"/>
<path d="M6873 6245 c-9 -10 -10 -16 -2 -21 15 -9 36 13 24 25 -6 6 -15 4 -22
-4z"/>
<path d="M6275 6240 c3 -5 8 -10 11 -10 2 0 4 5 4 10 0 6 -5 10 -11 10 -5 0
-7 -4 -4 -10z"/>
<path d="M5380 6222 c0 -11 9 -27 20 -37 19 -18 20 -17 20 6 0 25 -16 49 -32
49 -4 0 -8 -8 -8 -18z"/>
<path d="M5672 6226 c7 -8 15 -12 17 -11 5 6 -10 25 -20 25 -5 0 -4 -6 3 -14z"/>
<path d="M6038 6228 c-9 -7 -19 -24 -22 -38 -6 -25 -6 -25 5 -2 7 12 15 22 19
22 5 0 10 7 14 15 7 18 4 19 -16 3z"/>
<path d="M6530 6236 c0 -9 30 -14 35 -6 4 6 -3 10 -14 10 -12 0 -21 -2 -21 -4z"/>
<path d="M6610 6230 c0 -5 7 -10 16 -10 8 0 12 5 9 10 -3 6 -10 10 -16 10 -5
0 -9 -4 -9 -10z"/>
<path d="M6795 6220 c-8 -24 1 -40 22 -40 10 0 13 6 9 16 -3 9 -6 22 -6 30 0
21 -18 17 -25 -6z"/>
<path d="M6293 6214 c-7 -7 -12 -23 -12 -36 1 -21 2 -21 6 -3 3 11 10 26 16
33 14 17 5 23 -10 6z"/>
<path d="M6472 6214 c4 -21 22 -23 26 -1 2 10 -3 17 -13 17 -10 0 -15 -6 -13
-16z"/>
<path d="M5978 6190 c-4 -24 -2 -27 9 -19 15 13 17 35 4 43 -5 3 -11 -8 -13
-24z"/>
<path d="M6410 6210 c0 -5 -8 -10 -17 -10 -13 0 -14 -3 -6 -11 9 -9 16 -8 27
4 18 18 20 27 6 27 -5 0 -10 -4 -10 -10z"/>
<path d="M5840 6200 c-12 -8 -11 -10 7 -10 12 0 26 -8 32 -17 5 -10 12 -15 16
-11 6 6 -24 48 -35 48 -3 0 -12 -5 -20 -10z"/>
<path d="M6317 6204 c-4 -4 -4 -18 0 -32 4 -17 2 -23 -6 -18 -14 9 -14 -7 0
-21 8 -8 18 -8 35 -1 27 13 46 2 24 -13 -12 -7 -12 -11 -2 -17 7 -5 12 -15 10
-22 -2 -7 3 -15 10 -17 16 -6 17 78 0 95 -7 7 -23 12 -36 12 -19 0 -22 4 -17
20 6 19 -5 27 -18 14z"/>
<path d="M6606 6183 c-12 -12 -5 -23 14 -23 11 0 20 4 20 9 0 11 -26 22 -34
14z"/>
<path d="M7071 6174 c0 -11 3 -14 6 -6 3 7 2 16 -1 19 -3 4 -6 -2 -5 -13z"/>
<path d="M5422 6155 c-12 -9 -26 -14 -31 -10 -5 3 -12 1 -15 -4 -3 -5 1 -12
10 -15 8 -3 13 -10 9 -15 -3 -6 3 -14 12 -20 17 -10 17 -10 1 -11 -22 0 -24
-23 -4 -39 11 -9 16 -9 22 1 8 13 9 17 12 49 1 9 14 28 28 43 15 14 22 26 16
26 -6 0 -16 2 -24 5 -7 3 -23 -2 -36 -10z"/>
<path d="M6495 6160 c-19 -8 -19 -9 2 -9 12 -1 25 4 28 9 7 12 -2 12 -30 0z"/>
<path d="M5668 6153 c7 -3 16 -2 19 1 4 3 -2 6 -13 5 -11 0 -14 -3 -6 -6z"/>
<path d="M6000 6150 c0 -5 5 -10 10 -10 6 0 10 5 10 10 0 6 -4 10 -10 10 -5 0
-10 -4 -10 -10z"/>
<path d="M6428 6148 c9 -9 15 -9 24 0 9 9 7 12 -12 12 -19 0 -21 -3 -12 -12z"/>
<path d="M6248 6109 c-20 -27 -24 -40 -15 -45 7 -4 9 -3 4 1 -4 5 5 21 19 36
14 15 25 32 23 37 -2 5 -16 -8 -31 -29z"/>
<path d="M5590 6125 c0 -8 5 -15 10 -15 6 0 10 -7 10 -15 0 -8 5 -15 11 -15 6
0 8 7 5 16 -3 9 -6 22 -6 30 0 8 -7 14 -15 14 -8 0 -15 -7 -15 -15z"/>
<path d="M5815 6130 c-3 -5 -2 -10 4 -10 5 0 13 5 16 10 3 6 2 10 -4 10 -5 0
-13 -4 -16 -10z"/>
<path d="M6470 6128 c0 -9 5 -20 10 -23 13 -8 13 5 0 25 -8 13 -10 13 -10 -2z"/>
<path d="M6540 6125 c0 -10 9 -15 28 -14 16 1 20 3 10 6 -10 2 -18 9 -18 14 0
5 -4 9 -10 9 -5 0 -10 -7 -10 -15z"/>
<path d="M5940 6126 c0 -4 7 -14 15 -22 8 -9 15 -11 15 -6 0 5 -7 15 -15 22
-8 7 -15 9 -15 6z"/>
<path d="M6002 6110 c0 -14 2 -19 5 -12 2 6 2 18 0 25 -3 6 -5 1 -5 -13z"/>
<path d="M5360 6099 c0 -7 -8 -18 -17 -25 -16 -12 -16 -13 8 -14 22 0 27 5 27
25 0 14 -4 25 -9 25 -5 0 -9 -5 -9 -11z"/>
<path d="M6268 6075 c-16 -37 -13 -52 7 -32 15 15 28 67 17 67 -4 0 -15 -16
-24 -35z"/>
<path d="M5452 6088 c7 -20 48 -23 48 -4 0 11 -9 16 -26 16 -16 0 -24 -5 -22
-12z"/>
<path d="M5670 6077 c0 -14 4 -16 18 -8 9 5 30 7 45 4 21 -4 27 -1 27 11 0 14
-9 16 -45 14 -35 -2 -45 -7 -45 -21z"/>
<path d="M6695 6080 c-7 -11 12 -50 25 -50 14 0 25 23 12 28 -7 2 -12 10 -12
18 0 16 -16 19 -25 4z"/>
<path d="M6305 6050 c-18 -34 -14 -37 20 -14 29 19 31 29 10 38 -10 3 -20 -5
-30 -24z"/>
<path d="M6450 6061 c13 -26 4 -61 -16 -61 -8 0 -14 -7 -14 -17 0 -14 2 -14
21 3 16 14 22 15 28 5 7 -10 9 -10 14 2 3 8 3 18 -1 22 -4 4 -7 19 -7 33 0 18
-6 28 -18 30 -16 3 -17 1 -7 -17z"/>
<path d="M6530 6064 c0 -8 5 -12 10 -9 6 4 8 11 5 16 -9 14 -15 11 -15 -7z"/>
<path d="M6006 6054 c-5 -13 -9 -14 -20 -5 -12 10 -13 8 -9 -8 3 -11 12 -22
20 -25 8 -3 11 -1 8 5 -4 5 -1 17 6 25 6 8 10 17 7 20 -3 3 -8 -3 -12 -12z"/>
<path d="M5700 6036 c0 -9 5 -16 10 -16 6 0 10 4 10 9 0 6 -4 13 -10 16 -5 3
-10 -1 -10 -9z"/>
<path d="M6025 6040 c-3 -6 1 -10 9 -10 19 0 20 -12 4 -29 -11 -10 -10 -11 4
-6 9 4 19 12 21 19 6 16 -30 40 -38 26z"/>
<path d="M6170 6040 c0 -5 5 -10 10 -10 6 0 10 5 10 10 0 6 -4 10 -10 10 -5 0
-10 -4 -10 -10z"/>
<path d="M5206 6031 c15 -15 57 -17 61 -3 3 8 -7 12 -33 12 -23 0 -34 -4 -28
-9z"/>
<path d="M5515 6030 c3 -5 15 -10 26 -10 10 0 19 5 19 10 0 6 -12 10 -26 10
-14 0 -23 -4 -19 -10z"/>
<path d="M5629 6027 c-18 -14 -32 -84 -18 -92 12 -8 12 -45 -1 -45 -5 0 -10
-9 -10 -20 0 -22 15 -27 26 -8 4 6 8 41 9 77 0 36 4 72 9 79 11 18 4 23 -15 9z"/>
<path d="M6895 6030 c28 -12 37 -12 30 0 -3 6 -16 10 -28 9 -21 0 -21 -1 -2
-9z"/>
<path d="M6200 6025 c0 -2 10 -10 23 -16 20 -11 21 -11 8 4 -13 16 -31 23 -31
12z"/>
<path d="M6348 6018 c9 -9 15 -9 24 0 9 9 7 12 -12 12 -19 0 -21 -3 -12 -12z"/>
<path d="M5395 6010 c-3 -5 3 -10 15 -10 12 0 18 5 15 10 -3 6 -10 10 -15 10
-5 0 -12 -4 -15 -10z"/>
<path d="M6708 6008 c-8 -19 16 -57 28 -45 5 4 3 11 -3 15 -6 4 -12 16 -15 27
-3 17 -5 18 -10 3z"/>
<path d="M6087 6003 c-10 -10 -8 -33 3 -33 5 0 14 9 20 20 8 15 8 20 -3 20 -8
0 -17 -3 -20 -7z"/>
<path d="M6185 5999 c-10 -15 1 -23 20 -15 9 3 13 10 10 16 -8 13 -22 13 -30
-1z"/>
<path d="M6276 6002 c-3 -6 -1 -14 5 -17 15 -10 25 3 12 16 -7 7 -13 7 -17 1z"/>
<path d="M5908 5981 c-11 -11 -14 -21 -8 -31 5 -8 10 -12 12 -10 30 47 28 72
-4 41z"/>
<path d="M6345 5991 c-3 -5 -1 -12 5 -16 5 -3 10 1 10 9 0 18 -6 21 -15 7z"/>
<path d="M6540 5979 c7 -11 14 -18 17 -15 8 8 -5 36 -17 36 -7 0 -7 -6 0 -21z"/>
<path d="M6870 5990 c-8 -5 -11 -12 -7 -16 4 -4 13 -2 19 4 15 15 7 24 -12 12z"/>
<path d="M6491 5986 c-1 -5 8 -24 20 -42 23 -38 50 -47 42 -14 -3 11 -11 20
-18 20 -7 0 -20 10 -28 23 -9 12 -16 18 -16 13z"/>
<path d="M5266 5971 c-3 -5 1 -11 9 -15 8 -3 15 -1 15 4 0 13 -18 22 -24 11z"/>
<path d="M5430 5966 c0 -10 5 -14 10 -11 6 4 16 2 23 -3 16 -14 111 -12 98 1
-6 6 -23 12 -38 13 -15 2 -43 6 -60 10 -27 5 -33 3 -33 -10z"/>
<path d="M5790 5970 c0 -5 5 -10 10 -10 6 0 10 5 10 10 0 6 -4 10 -10 10 -5 0
-10 -4 -10 -10z"/>
<path d="M5840 5951 c0 -6 5 -13 10 -16 6 -3 10 1 10 9 0 9 -4 16 -10 16 -5 0
-10 -4 -10 -9z"/>
<path d="M5986 5951 c-3 -5 1 -11 9 -15 15 -6 29 7 18 18 -9 9 -21 8 -27 -3z"/>
<path d="M6070 5952 c0 -4 9 -8 20 -9 11 -1 20 2 20 8 0 5 -9 9 -20 9 -11 0
-20 -4 -20 -8z"/>
<path d="M6414 5939 c-15 -17 -15 -19 -1 -19 19 0 67 21 67 29 0 15 -51 7 -66
-10z"/>
<path d="M5350 5937 c-8 -7 -14 -19 -14 -27 1 -8 2 -23 3 -32 2 -27 15 -22 29
12 16 36 5 65 -18 47z"/>
<path d="M6285 5930 c-3 -5 -1 -10 4 -10 6 0 11 5 11 10 0 6 -2 10 -4 10 -3 0
-8 -4 -11 -10z"/>
<path d="M6340 5928 c0 -7 4 -20 10 -28 5 -9 5 -19 -2 -27 -8 -10 -3 -13 26
-13 20 0 36 5 36 10 0 6 -9 10 -21 10 -16 0 -19 4 -14 21 5 14 2 25 -6 30 -20
12 -29 11 -29 -3z"/>
<path d="M5448 5923 c7 -3 16 -2 19 1 4 3 -2 6 -13 5 -11 0 -14 -3 -6 -6z"/>
<path d="M6140 5920 c8 -5 20 -10 25 -10 6 0 3 5 -5 10 -8 5 -19 10 -25 10 -5
0 -3 -5 5 -10z"/>
<path d="M6707 5923 c-9 -8 -9 -66 -1 -87 14 -36 29 -15 29 39 0 51 -10 67
-28 48z"/>
<path d="M5493 5912 c-13 -2 -23 -10 -23 -18 0 -18 11 -18 36 0 22 17 18 23
-13 18z"/>
<path d="M6205 5910 c3 -5 8 -10 11 -10 2 0 4 5 4 10 0 6 -5 10 -11 10 -5 0
-7 -4 -4 -10z"/>
<path d="M6650 5910 c0 -5 5 -10 10 -10 6 0 10 5 10 10 0 6 -4 10 -10 10 -5 0
-10 -4 -10 -10z"/>
<path d="M6147 5887 c-3 -9 -2 -19 3 -22 6 -4 10 -15 10 -26 0 -10 5 -19 10
-19 12 0 12 6 -4 49 -9 27 -14 31 -19 18z"/>
<path d="M5020 5880 c0 -5 5 -10 10 -10 6 0 10 5 10 10 0 6 -4 10 -10 10 -5 0
-10 -4 -10 -10z"/>
<path d="M5060 5880 c0 -5 5 -10 10 -10 6 0 10 5 10 10 0 6 -4 10 -10 10 -5 0
-10 -4 -10 -10z"/>
<path d="M5755 5880 c3 -5 13 -10 21 -10 8 0 12 5 9 10 -3 6 -13 10 -21 10 -8
0 -12 -4 -9 -10z"/>
<path d="M6460 5880 c-13 -8 -12 -10 3 -10 9 0 17 5 17 10 0 12 -1 12 -20 0z"/>
<path d="M5823 5863 c4 -3 2 -12 -4 -19 -8 -10 -5 -15 15 -20 33 -8 59 2 29
11 -13 4 -23 14 -23 21 0 8 -5 14 -12 14 -6 0 -8 -3 -5 -7z"/>
<path d="M6491 5844 c-12 -14 -11 -16 4 -12 10 1 20 9 23 16 5 17 -10 15 -27
-4z"/>
<path d="M6552 5849 c2 -6 8 -10 13 -10 5 0 11 4 13 10 2 6 -4 11 -13 11 -9 0
-15 -5 -13 -11z"/>
<path d="M5290 5840 c0 -5 11 -10 25 -10 14 0 25 5 25 10 0 6 -11 10 -25 10
-14 0 -25 -4 -25 -10z"/>
<path d="M5385 5840 c-3 -5 3 -10 14 -10 12 0 21 5 21 10 0 6 -6 10 -14 10 -8
0 -18 -4 -21 -10z"/>
<path d="M5252 5822 c-23 -23 -52 -35 -52 -22 0 6 -9 10 -20 10 -38 0 -20 -19
25 -26 25 -3 45 -10 45 -15 0 -5 4 -9 8 -9 5 0 9 6 9 13 0 7 3 25 7 40 8 32 3
34 -22 9z"/>
<path d="M5453 5827 c-7 -12 -2 -15 42 -19 29 -2 40 1 43 12 2 12 -7 15 -39
15 -22 0 -43 -3 -46 -8z"/>
<path d="M5600 5831 c0 -5 7 -11 14 -14 10 -4 13 -1 9 9 -6 15 -23 19 -23 5z"/>
<path d="M6413 5825 c-7 -20 2 -29 21 -22 9 4 13 13 10 22 -8 19 -23 19 -31 0z"/>
<path d="M5420 5810 c0 -5 5 -10 10 -10 6 0 10 5 10 10 0 6 -4 10 -10 10 -5 0
-10 -4 -10 -10z"/>
<path d="M5790 5794 c0 -8 5 -12 10 -9 6 4 8 11 5 16 -9 14 -15 11 -15 -7z"/>
<path d="M6683 5793 c9 -2 23 -2 30 0 6 3 -1 5 -18 5 -16 0 -22 -2 -12 -5z"/>
<path d="M6740 5790 c0 -5 5 -10 10 -10 6 0 10 5 10 10 0 6 -4 10 -10 10 -5 0
-10 -4 -10 -10z"/>
<path d="M6785 5790 c-3 -5 -1 -10 4 -10 6 0 11 5 11 10 0 6 -2 10 -4 10 -3 0
-8 -4 -11 -10z"/>
<path d="M5300 5780 c0 -5 12 -10 26 -10 14 0 23 4 19 10 -3 6 -15 10 -26 10
-10 0 -19 -4 -19 -10z"/>
<path d="M6810 5779 c0 -5 5 -7 10 -4 6 3 10 8 10 11 0 2 -4 4 -10 4 -5 0 -10
-5 -10 -11z"/>
<path d="M6477 5773 c-4 -3 1 -12 9 -21 9 -9 19 -11 24 -6 6 6 2 14 -9 21 -10
7 -21 9 -24 6z"/>
<path d="M5425 5761 c-3 -5 -1 -12 5 -16 5 -3 10 1 10 9 0 18 -6 21 -15 7z"/>
<path d="M5896 5757 c12 -7 19 -17 17 -24 -5 -14 14 -27 22 -14 9 16 -18 51
-40 51 -20 -1 -20 -1 1 -13z"/>
<path d="M6406 5745 c-4 -14 -11 -25 -17 -25 -14 0 -2 -18 20 -29 15 -8 17 -5
16 29 -1 48 -10 60 -19 25z"/>
<path d="M6695 5760 c-19 -8 -19 -9 3 -9 12 -1 22 4 22 9 0 6 -1 10 -2 9 -2 0
-12 -4 -23 -9z"/>
<path d="M5482 5748 c2 -6 10 -14 16 -16 7 -2 10 2 6 12 -7 18 -28 22 -22 4z"/>
<path d="M5548 5753 c7 -3 16 -2 19 1 4 3 -2 6 -13 5 -11 0 -14 -3 -6 -6z"/>
<path d="M6290 5750 c0 -5 7 -10 15 -10 8 0 15 5 15 10 0 6 -7 10 -15 10 -8 0
-15 -4 -15 -10z"/>
<path d="M4946 5725 c8 -37 14 -45 14 -19 0 10 -5 26 -10 34 -8 11 -9 7 -4
-15z"/>
<path d="M5362 5728 c2 -17 11 -24 31 -26 15 -2 27 1 27 7 0 6 -7 11 -16 11
-10 0 -14 6 -10 15 4 10 -1 15 -15 15 -15 0 -20 -5 -17 -22z"/>
<path d="M6458 5742 c-10 -2 -18 -10 -18 -18 0 -16 9 -18 29 -5 18 12 10 28
-11 23z"/>
<path d="M5245 5731 c-7 -12 12 -24 25 -16 6 3 10 -1 10 -10 0 -9 4 -13 10
-10 6 4 5 13 -3 25 -13 21 -32 26 -42 11z"/>
<path d="M5620 5724 c0 -8 5 -12 10 -9 6 3 10 10 10 16 0 5 -4 9 -10 9 -5 0
-10 -7 -10 -16z"/>
<path d="M5710 5725 c0 -8 4 -15 9 -15 5 0 14 7 21 15 10 13 9 15 -9 15 -12 0
-21 -6 -21 -15z"/>
<path d="M5848 5733 c7 -3 16 -2 19 1 4 3 -2 6 -13 5 -11 0 -14 -3 -6 -6z"/>
<path d="M6260 5725 c0 -8 5 -15 10 -15 6 0 10 7 10 15 0 8 -4 15 -10 15 -5 0
-10 -7 -10 -15z"/>
<path d="M6602 5729 c2 -6 8 -10 13 -10 5 0 11 4 13 10 2 6 -4 11 -13 11 -9 0
-15 -5 -13 -11z"/>
<path d="M4922 5710 c14 -22 24 -19 15 5 -4 8 -11 15 -17 15 -6 0 -6 -7 2 -20z"/>
<path d="M5585 5710 c3 -5 8 -10 11 -10 2 0 4 5 4 10 0 6 -5 10 -11 10 -5 0
-7 -4 -4 -10z"/>
<path d="M6810 5709 c0 -5 5 -7 10 -4 6 3 10 8 10 11 0 2 -4 4 -10 4 -5 0 -10
-5 -10 -11z"/>
<path d="M4994 5695 c-4 -8 -12 -15 -19 -15 -13 0 -25 -21 -25 -45 0 -7 14
-21 32 -29 29 -15 33 -15 50 1 18 16 20 15 44 -10 l25 -27 -25 0 c-32 0 -44
-20 -17 -27 12 -3 21 -9 21 -14 0 -13 -18 -20 -24 -10 -4 5 -20 5 -40 -1 -40
-13 -80 -3 -56 12 8 6 27 10 43 10 15 0 27 5 27 10 0 11 -12 13 -50 10 -20 -2
-22 1 -12 12 9 12 7 17 -13 28 -14 7 -25 21 -25 31 0 10 -4 21 -10 24 -5 3
-10 15 -10 26 0 11 -4 17 -10 14 -16 -10 -12 -35 12 -67 l21 -31 -24 -18 c-26
-19 -55 -8 -45 18 3 7 1 13 -4 13 -13 0 -71 -121 -63 -133 3 -5 2 -7 -4 -4 -8
5 -43 -51 -43 -68 0 -6 477 -3 518 3 46 6 29 22 -24 22 -28 0 -43 4 -39 10 10
15 -6 12 -26 -6 -22 -20 -99 -11 -99 12 0 8 -4 14 -10 14 -5 0 -10 5 -10 10 0
6 11 10 25 10 14 0 28 7 32 16 3 10 14 14 27 11 11 -2 32 -1 46 3 21 7 17 8
-20 9 -25 1 -51 5 -59 10 -16 11 109 25 139 16 16 -5 22 0 30 21 11 29 7 54
-9 54 -5 0 -12 -8 -16 -19 -4 -14 -19 -20 -67 -25 -65 -6 -75 -1 -122 66 -14
20 -18 21 -27 8 -7 -11 -8 -4 -3 23 6 33 4 37 -15 37 -12 0 -24 -7 -27 -15z
m-134 -161 c0 -10 5 -12 13 -8 8 6 8 3 -1 -9 -20 -23 -55 -2 -41 25 11 21 29
15 29 -8z m60 2 c0 -3 -4 -8 -10 -11 -5 -3 -10 -1 -10 4 0 6 5 11 10 11 6 0
10 -2 10 -4z m-12 -83 c-2 -10 -10 -18 -18 -18 -8 0 -16 8 -18 18 -2 12 3 17
18 17 15 0 20 -5 18 -17z m132 7 c0 -5 -6 -10 -12 -10 -9 0 -8 -4 2 -10 11 -7
4 -10 -27 -10 -31 0 -43 4 -43 14 0 8 8 17 18 19 32 9 62 7 62 -3z m-236 -24
c-5 -14 -9 -15 -15 -5 -5 8 -3 17 4 21 15 9 19 4 11 -16z"/>
<path d="M5467 5703 c-15 -14 -6 -23 23 -23 17 0 30 5 30 11 0 5 -5 7 -10 4
-6 -4 -17 -2 -24 4 -7 6 -16 8 -19 4z"/>
<path d="M6005 5690 c-18 -8 -17 -9 8 -9 16 -1 26 3 22 9 -3 6 -7 10 -8 9 -1
0 -11 -4 -22 -9z"/>
<path d="M6065 5690 c-3 -5 1 -10 10 -10 9 0 13 5 10 10 -3 6 -8 10 -10 10 -2
0 -7 -4 -10 -10z"/>
<path d="M6474 5687 c-3 -9 -16 -17 -28 -17 -22 0 -56 -44 -43 -56 3 -3 10 4
17 15 6 12 21 21 34 21 30 0 54 26 38 42 -8 8 -13 7 -18 -5z"/>
<path d="M6540 5681 c0 -11 -5 -32 -11 -48 -10 -26 -12 -27 -23 -10 -15 19
-26 22 -26 7 0 -5 11 -17 25 -26 19 -12 28 -14 38 -5 8 6 16 9 19 6 2 -3 3 9
0 25 -2 17 1 36 7 44 9 11 8 15 -5 20 -23 9 -24 8 -24 -13z"/>
<path d="M5648 5683 c7 -3 16 -2 19 1 4 3 -2 6 -13 5 -11 0 -14 -3 -6 -6z"/>
<path d="M5776 5676 c3 -8 12 -17 21 -20 11 -5 13 -2 9 10 -3 8 -6 18 -6 20 0
2 -7 4 -15 4 -8 0 -12 -6 -9 -14z"/>
<path d="M6270 5680 c-18 -12 -2 -12 25 0 13 6 15 9 5 9 -8 0 -22 -4 -30 -9z"/>
<path d="M4935 5670 c3 -5 8 -10 11 -10 2 0 4 5 4 10 0 6 -5 10 -11 10 -5 0
-7 -4 -4 -10z"/>
<path d="M5185 5670 c3 -5 12 -7 20 -4 12 5 14 0 9 -25 -7 -33 5 -41 26 -16 7
8 17 12 22 9 13 -8 28 15 21 32 -4 10 -9 10 -24 1 -14 -9 -21 -9 -31 1 -14 14
-52 16 -43 2z"/>
<path d="M5380 5670 c0 -11 54 -50 69 -50 23 0 10 17 -29 38 -22 11 -40 17
-40 12z"/>
<path d="M5736 5671 c-4 -7 -5 -15 -2 -18 9 -9 19 4 14 18 -4 11 -6 11 -12 0z"/>
<path d="M6605 5640 c0 -22 3 -40 7 -40 5 0 8 18 8 40 0 22 -3 40 -8 40 -4 0
-7 -18 -7 -40z"/>
<path d="M6750 5669 c0 -5 5 -7 10 -4 6 3 10 8 10 11 0 2 -4 4 -10 4 -5 0 -10
-5 -10 -11z"/>
<path d="M6380 5660 c0 -5 5 -10 10 -10 6 0 10 5 10 10 0 6 -4 10 -10 10 -5 0
-10 -4 -10 -10z"/>
<path d="M4870 5646 c0 -8 4 -17 9 -20 5 -4 7 3 4 14 -6 23 -13 26 -13 6z"/>
<path d="M5340 5650 c0 -5 5 -10 10 -10 6 0 10 5 10 10 0 6 -4 10 -10 10 -5 0
-10 -4 -10 -10z"/>
<path d="M5585 5651 c-3 -5 -1 -12 5 -16 5 -3 10 1 10 9 0 18 -6 21 -15 7z"/>
<path d="M6339 5658 c-7 -17 -6 -78 2 -78 5 0 9 8 9 18 0 9 3 27 6 40 4 13 2
22 -5 22 -6 0 -11 -1 -12 -2z"/>
<path d="M6096 5641 c-4 -5 -2 -12 3 -15 5 -4 12 -2 15 3 4 5 2 12 -3 15 -5 4
-12 2 -15 -3z"/>
<path d="M6225 5641 c-3 -5 -1 -12 5 -16 5 -3 10 1 10 9 0 18 -6 21 -15 7z"/>
<path d="M5135 5625 c20 -16 37 -16 36 0 0 6 -13 11 -28 13 -27 2 -27 2 -8
-13z"/>
<path d="M5510 5630 c0 -5 7 -10 15 -10 8 0 15 5 15 10 0 6 -7 10 -15 10 -8 0
-15 -4 -15 -10z"/>
<path d="M6144 5625 c11 -8 14 -15 8 -15 -9 0 -10 -5 -2 -19 5 -11 7 -27 4
-35 -4 -10 -1 -16 8 -16 9 0 14 13 14 43 0 43 -9 57 -36 57 -11 -1 -10 -4 4
-15z"/>
<path d="M5375 5620 c3 -5 11 -10 16 -10 6 0 7 5 4 10 -3 6 -11 10 -16 10 -6
0 -7 -4 -4 -10z"/>
<path d="M6267 5623 c-10 -9 -9 -23 1 -23 5 0 17 7 28 15 19 14 19 14 -2 15
-11 0 -24 -3 -27 -7z"/>
<path d="M5630 5610 c0 -5 7 -10 16 -10 8 0 12 5 9 10 -3 6 -10 10 -16 10 -5
0 -9 -4 -9 -10z"/>
<path d="M5726 5612 c-3 -6 -1 -14 5 -17 15 -10 25 3 12 16 -7 7 -13 7 -17 1z"/>
<path d="M5351 5594 c0 -11 3 -14 6 -6 3 7 2 16 -1 19 -3 4 -6 -2 -5 -13z"/>
<path d="M5940 5595 c0 -8 5 -15 10 -15 6 0 10 7 10 15 0 8 -4 15 -10 15 -5 0
-10 -7 -10 -15z"/>
<path d="M6410 5603 c-34 -7 -49 -20 -43 -42 2 -10 -3 -25 -11 -34 -19 -18 -5
-31 23 -22 13 4 17 12 14 26 -4 13 -1 19 8 17 8 -2 13 4 12 12 -2 9 12 22 35
32 31 14 33 17 12 16 -14 0 -36 -3 -50 -5z"/>
<path d="M6802 5594 c-7 -8 -8 -14 -3 -14 10 0 25 19 20 25 -2 1 -10 -3 -17
-11z"/>
<path d="M5400 5581 c13 -11 28 -17 33 -14 13 8 -14 33 -37 33 -20 0 -20 -1 4
-19z"/>
<path d="M5554 5578 c3 -13 6 -27 6 -31 0 -5 5 -5 10 -2 17 10 12 55 -6 55
-12 0 -15 -6 -10 -22z"/>
<path d="M5696 5574 c-4 -15 -2 -32 3 -37 8 -8 11 0 11 26 0 44 -5 47 -14 11z"/>
<path d="M6465 5559 c-4 -6 -5 -13 -2 -16 7 -7 27 6 27 18 0 12 -17 12 -25 -2z"/>
<path d="M6651 5556 c-9 -11 -7 -15 8 -19 19 -5 41 9 41 25 0 13 -37 9 -49 -6z"/>
<path d="M6560 5552 c0 -4 10 -13 21 -20 23 -15 47 -3 35 17 -8 12 -56 15 -56
3z"/>
<path d="M5282 5520 c1 -33 9 -38 28 -15 9 10 9 15 1 15 -6 0 -11 7 -11 15 0
8 -4 15 -9 15 -5 0 -9 -13 -9 -30z"/>
<path d="M6226 5541 c-4 -7 -5 -15 -2 -18 9 -9 19 4 14 18 -4 11 -6 11 -12 0z"/>
<path d="M6720 5540 c0 -5 5 -10 11 -10 5 0 7 5 4 10 -3 6 -8 10 -11 10 -2 0
-4 -4 -4 -10z"/>
<path d="M5375 5490 c3 -5 15 -10 25 -10 10 0 22 5 25 10 4 6 -7 10 -25 10
-18 0 -29 -4 -25 -10z"/>
<path d="M5888 5493 c6 -2 18 -2 25 0 6 3 1 5 -13 5 -14 0 -19 -2 -12 -5z"/>
<path d="M6020 5480 c0 -11 5 -20 10 -20 6 0 10 9 10 20 0 11 -4 20 -10 20 -5
0 -10 -9 -10 -20z"/>
<path d="M5230 5480 c0 -5 4 -10 9 -10 6 0 13 5 16 10 3 6 -1 10 -9 10 -9 0
-16 -4 -16 -10z"/>
<path d="M5780 5476 c0 -9 7 -16 16 -16 17 0 14 22 -4 28 -7 2 -12 -3 -12 -12z"/>
<path d="M6070 5474 c0 -8 5 -12 10 -9 6 4 8 11 5 16 -9 14 -15 11 -15 -7z"/>
<path d="M6467 5484 c-16 -16 -5 -24 36 -24 23 0 49 5 57 11 11 8 3 9 -32 5
-28 -3 -48 -1 -50 5 -2 6 -7 7 -11 3z"/>
<path d="M6696 5469 c-10 -12 -14 -24 -10 -27 4 -4 9 -1 11 6 3 6 11 12 19 12
15 0 19 16 6 24 -5 3 -16 -4 -26 -15z"/>
<path d="M6751 5474 c0 -11 3 -14 6 -6 3 7 2 16 -1 19 -3 4 -6 -2 -5 -13z"/>
<path d="M6360 5470 c-12 -8 -9 -10 13 -10 15 0 27 5 27 10 0 13 -20 13 -40 0z"/>
<path d="M6173 5456 c13 -10 36 -12 82 -8 45 3 65 1 65 -7 0 -6 4 -11 9 -11 5
0 8 8 7 18 -2 14 -16 17 -92 19 -77 3 -87 1 -71 -11z"/>
<path d="M5383 5438 c1 -7 -14 -16 -33 -20 l-35 -7 40 3 c22 2 51 0 65 -4 14
-3 39 -3 55 1 l30 8 -32 -3 c-18 -1 -33 1 -33 6 0 4 -9 8 -20 8 -11 0 -20 5
-20 10 0 6 -4 10 -10 10 -5 0 -9 -5 -7 -12z"/>
<path d="M5840 5440 c0 -6 7 -10 15 -10 8 0 15 2 15 4 0 2 -7 6 -15 10 -8 3
-15 1 -15 -4z"/>
<path d="M5800 5430 c0 -5 5 -10 10 -10 6 0 10 5 10 10 0 6 -4 10 -10 10 -5 0
-10 -4 -10 -10z"/>
<path d="M5630 5420 c0 -5 7 -10 16 -10 8 0 12 5 9 10 -3 6 -10 10 -16 10 -5
0 -9 -4 -9 -10z"/>
<path d="M6040 5420 l-45 -7 40 -1 c22 0 49 3 60 8 23 10 9 10 -55 0z"/>
<path d="M6398 5418 c5 -5 16 -8 23 -6 8 3 3 7 -10 11 -17 4 -21 3 -13 -5z"/>
<path d="M5873 5413 c9 -2 25 -2 35 0 9 3 1 5 -18 5 -19 0 -27 -2 -17 -5z"/>
<path d="M5180 6180 c0 -5 5 -10 10 -10 6 0 10 5 10 10 0 6 -4 10 -10 10 -5 0
-10 -4 -10 -10z"/>
<path d="M5106 6051 c-5 -13 -4 -27 3 -34 17 -17 24 -1 14 30 l-10 28 -7 -24z"/>
<path d="M1257 5883 l-57 -4 5 -32 c7 -38 15 -48 15 -20 0 17 5 20 23 16 17
-4 19 -2 8 5 -27 19 31 24 338 25 166 1 301 5 301 10 0 7 -517 7 -633 0z"/>
<path d="M1870 5850 c0 -5 5 -10 10 -10 6 0 10 5 10 10 0 6 -4 10 -10 10 -5 0
-10 -4 -10 -10z"/>
<path d="M1338 5843 c7 -3 16 -2 19 1 4 3 -2 6 -13 5 -11 0 -14 -3 -6 -6z"/>
<path d="M1458 5843 c7 -3 16 -2 19 1 4 3 -2 6 -13 5 -11 0 -14 -3 -6 -6z"/>
<path d="M1876 5801 c-4 -5 -2 -20 3 -33 9 -21 10 -21 10 10 1 32 -3 39 -13
23z"/>
<path d="M1245 5790 c3 -5 8 -10 11 -10 2 0 4 5 4 10 0 6 -5 10 -11 10 -5 0
-7 -4 -4 -10z"/>
<path d="M1300 5784 c0 -8 5 -12 10 -9 6 4 8 11 5 16 -9 14 -15 11 -15 -7z"/>
<path d="M1213 5690 c0 -41 2 -58 4 -37 2 20 2 54 0 75 -2 20 -4 3 -4 -38z"/>
<path d="M1345 5720 c-3 -5 3 -10 15 -10 12 0 18 5 15 10 -3 6 -10 10 -15 10
-5 0 -12 -4 -15 -10z"/>
<path d="M1230 5700 c0 -11 4 -20 9 -20 5 0 7 9 4 20 -3 11 -7 20 -9 20 -2 0
-4 -9 -4 -20z"/>
<path d="M1560 5709 c0 -5 5 -7 10 -4 6 3 10 8 10 11 0 2 -4 4 -10 4 -5 0 -10
-5 -10 -11z"/>
<path d="M1441 5664 c0 -11 3 -14 6 -6 3 7 2 16 -1 19 -3 4 -6 -2 -5 -13z"/>
<path d="M1882 5650 c0 -19 2 -27 5 -17 2 9 2 25 0 35 -3 9 -5 1 -5 -18z"/>
<path d="M1550 5629 c0 -5 5 -7 10 -4 6 3 10 8 10 11 0 2 -4 4 -10 4 -5 0 -10
-5 -10 -11z"/>
<path d="M1280 5579 c0 -11 5 -17 10 -14 6 3 10 13 10 21 0 8 -4 14 -10 14 -5
0 -10 -9 -10 -21z"/>
<path d="M1345 5570 c3 -5 10 -10 16 -10 5 0 9 5 9 10 0 6 -7 10 -16 10 -8 0
-12 -4 -9 -10z"/>
<path d="M1405 5539 c-10 -15 3 -25 16 -12 7 7 7 13 1 17 -6 3 -14 1 -17 -5z"/>
<path d="M1240 5475 c0 -9 6 -12 15 -9 8 4 15 10 15 15 0 5 -7 9 -15 9 -8 0
-15 -7 -15 -15z"/>
<path d="M1222 5460 c0 -14 2 -19 5 -12 2 6 2 18 0 25 -3 6 -5 1 -5 -13z"/>
<path d="M2355 2073 c9 -68 16 -103 21 -103 2 0 23 14 48 31 l44 31 -32 27
c-17 15 -44 35 -59 45 l-28 17 6 -48z"/>
<path d="M2845 1642 c17 -17 108 -65 100 -53 -3 6 -30 23 -58 37 -29 15 -47
22 -42 16z"/>
<path d="M1920 1300 c36 -12 62 -12 55 0 -3 6 -23 10 -43 9 -33 -1 -34 -2 -12
-9z"/>
</g>
</svg>
